<svg width="80" height="37" viewBox="0 0 80 37" fill="none" xmlns="http://www.w3.org/2000/svg">
<path fill-rule="evenodd" clip-rule="evenodd" d="M76.0401 25.3107C76.0401 28.5551 73.4023 31.1792 70.141 31.1792H64.2421V35.1631C64.2421 36.1889 63.4268 37 62.4196 37H62.2278C61.2206 37 60.4053 36.1889 60.4053 35.1869V29.5271C60.3895 29.428 60.3813 29.3264 60.3813 29.223C60.3813 29.1197 60.3895 29.0181 60.4053 28.9189V21.6548C60.3895 21.5556 60.3813 21.454 60.3813 21.3507C60.3813 21.1442 60.4141 20.9447 60.4748 20.7573C60.6144 20.2696 60.9538 19.8661 61.3995 19.6396C61.6813 19.4836 62.0048 19.3945 62.3476 19.3945H70.141C73.4023 19.4422 76.0401 22.0664 76.0401 25.3107ZM70.141 27.2669H64.2421V23.3068H70.141C71.2441 23.3068 72.1314 24.1895 72.1314 25.2869C72.1314 26.3842 71.2441 27.2669 70.141 27.2669ZM58.9667 26.7424V21.4226C58.9667 20.3491 58.1034 19.4903 57.0483 19.4665C55.9692 19.4665 55.082 20.3491 55.082 21.4226V26.7663C55.082 30.273 52.2284 33.1119 48.7033 33.1119C45.2023 33.088 42.3487 30.273 42.3487 26.7663V21.4226C42.3487 20.3491 41.4614 19.4665 40.3824 19.4665C39.3033 19.4665 38.416 20.3491 38.416 21.4226V26.7424C38.416 32.3962 42.9962 36.9765 48.6794 36.9765C54.3626 36.9765 58.9667 32.3962 58.9667 26.7424Z" fill="#1DFFE4"/>
<path fill-rule="evenodd" clip-rule="evenodd" d="M57.0479 17.6293C56.3764 17.6293 55.753 17.2714 55.3933 16.7228L52.6356 12.2618L52.5876 12.1664L48.7029 5.7492L43.859 13.7647C47.6238 13.7647 50.6693 16.7943 50.6693 20.5397V27.2669C50.6693 28.3404 49.782 29.2231 48.7029 29.2231C47.6238 29.2231 46.7366 28.3404 46.7366 27.2669V20.8259C46.7366 19.0606 45.2978 17.6531 43.5473 17.6531H40.3579C38.8472 17.6531 37.936 16.031 38.7033 14.7428L47.0483 0.930368C47.7917 -0.310123 49.6141 -0.310123 50.3575 0.930368L58.7025 14.7428C59.4698 16.0071 58.5346 17.6293 57.0479 17.6293ZM7.81757 4.03214H1.96634C0.887252 4.03214 0 3.14948 0 2.07598C0 1.00248 0.887252 0.11982 1.96634 0.11982H17.6012C18.6803 0.11982 19.5675 1.00248 19.5675 2.07598C19.5435 3.14948 18.6803 4.03214 17.6012 4.03214H11.7503V15.7209C11.7503 16.7944 10.863 17.677 9.78391 17.677C8.70482 17.677 7.81757 16.7944 7.81757 15.7209V4.03214ZM25.2027 4.03163H34.9625C36.0416 4.03163 36.9288 3.14897 36.9288 2.07547C36.9288 1.00197 36.0416 0.119308 34.9625 0.119308H23.2364C23.1689 0.119308 23.1023 0.122756 23.0365 0.129483C22.0499 0.230386 21.2701 1.06906 21.2701 2.07547V8.87424V15.673V15.6732C21.2701 16.2188 21.4992 16.715 21.8663 17.0712C22.1828 17.3822 22.6033 17.5842 23.0727 17.6225C23.1267 17.627 23.1813 17.6293 23.2364 17.6293L23.2621 17.6292H34.9625C36.0416 17.6292 36.9288 16.7465 36.9288 15.673C36.9288 14.5995 36.0416 13.7168 34.9625 13.7168H25.2027V10.8304H34.9625C36.0416 10.8304 36.9288 9.94774 36.9288 8.87424C36.9288 7.80073 36.0416 6.91808 34.9625 6.91808H25.2027V4.03163ZM79.9488 15.6968V2.28999C80.0208 1.74131 79.8289 1.14492 79.3733 0.691663L79.3253 0.643952C78.582 -0.0955711 77.359 -0.0955711 76.6156 0.643952L70.1411 7.08496L63.6665 0.643952C62.9232 -0.0955711 61.7002 -0.0955711 60.9568 0.643952L60.8849 0.715519C60.4532 1.14492 60.2614 1.71745 60.3333 2.28999V15.6968C60.3333 16.7942 61.1966 17.653 62.2997 17.653C63.4027 17.653 64.266 16.7703 64.266 15.6968V6.75098L68.7502 11.2358C68.7742 11.2597 68.7982 11.2776 68.8222 11.2955C68.8462 11.3134 68.8701 11.3313 68.8941 11.3551C69.6375 11.9992 70.7645 11.9754 71.4839 11.2597L76.0161 6.75098V15.6968C76.0161 16.7942 76.9034 17.653 77.9825 17.653C79.0855 17.653 79.9488 16.7703 79.9488 15.6968Z" fill="#6C77FF"/>
</svg>
