<svg width="88" height="88" viewBox="0 0 88 88" fill="none" xmlns="http://www.w3.org/2000/svg">
<g clip-path="url(#clip0_1340_5585)">
<rect width="88" height="88" rx="24" fill="#616DFF"/>
<path d="M63 7.85017C63 10.7923 61.5866 13.8641 58.4686 16.9465C55.3396 20.0395 50.6587 22.9631 44.6331 25.4825C32.5946 30.516 15.7556 33.7003 -3 33.7003C-21.7556 33.7003 -38.5946 30.516 -50.6331 25.4825C-56.6587 22.9631 -61.3396 20.0395 -64.4686 16.9465C-67.5866 13.8641 -69 10.7923 -69 7.85017C-69 4.90804 -67.5866 1.83623 -64.4686 -1.24611C-61.3396 -4.33919 -56.6587 -7.26275 -50.6331 -9.78218C-38.5946 -14.8157 -21.7556 -18 -3 -18C15.7556 -18 32.5946 -14.8157 44.6331 -9.78218C50.6587 -7.26275 55.3396 -4.33919 58.4686 -1.24611C61.5866 1.83623 63 4.90804 63 7.85017Z" stroke="#364ADE" stroke-width="6"/>
<path d="M63 44.7213C63 47.6634 61.5866 50.7352 58.4686 53.8176C55.3396 56.9106 50.6587 59.8342 44.6331 62.3536C32.5946 67.3871 15.7556 70.5714 -3 70.5714C-21.7556 70.5714 -38.5946 67.3871 -50.6331 62.3536C-56.6587 59.8342 -61.3396 56.9106 -64.4686 53.8176C-67.5866 50.7352 -69 47.6634 -69 44.7213C-69 41.7791 -67.5866 38.7073 -64.4686 35.625C-61.3396 32.5319 -56.6587 29.6083 -50.6331 27.0889C-38.5946 22.0554 -21.7556 18.8711 -3 18.8711C15.7556 18.8711 32.5946 22.0554 44.6331 27.0889C50.6587 29.6083 55.3396 32.5319 58.4686 35.625C61.5866 38.7073 63 41.7791 63 44.7213Z" stroke="#364ADE" stroke-width="6"/>
<path d="M63 83.0349C63 85.977 61.5866 89.0488 58.4686 92.1311C55.3396 95.2242 50.6587 98.1478 44.6331 100.667C32.5946 105.701 15.7556 108.885 -3 108.885C-21.7556 108.885 -38.5946 105.701 -50.6331 100.667C-56.6587 98.1478 -61.3396 95.2242 -64.4686 92.1311C-67.5866 89.0488 -69 85.977 -69 83.0349C-69 80.0927 -67.5866 77.0209 -64.4686 73.9386C-61.3396 70.8455 -56.6587 67.9219 -50.6331 65.4025C-38.5946 60.369 -21.7556 57.1847 -3 57.1847C15.7556 57.1847 32.5946 60.369 44.6331 65.4025C50.6587 67.9219 55.3396 70.8455 58.4686 73.9386C61.5866 77.0209 63 80.0927 63 83.0349Z" stroke="#364ADE" stroke-width="6"/>
<path d="M33.367 28.4833C34.858 28.4833 36.237 28.5999 37.497 28.9453C38.6404 29.1554 39.7318 29.5865 40.71 30.2146C41.6293 30.7909 42.3177 31.6006 42.775 32.6389C43.2347 33.6773 43.4633 34.9489 43.4633 36.3326C43.4633 37.9496 43.1203 39.3333 42.3177 40.3716C41.6293 41.4123 40.4813 42.3339 39.1047 43.0269C41.0553 43.6056 42.5463 44.6439 43.4633 46.0276C44.3827 47.4136 44.9567 49.1449 44.9567 51.1073C44.9567 52.7243 44.6113 54.1079 44.0373 55.2629C43.4633 56.4179 42.5463 57.4563 41.5127 58.1493C40.3899 58.8921 39.1486 59.4382 37.8423 59.7639C36.4657 60.1116 35.089 60.3426 33.7123 60.3426H18.3333V28.4833H33.367ZM32.4477 41.4099C33.71 41.4099 34.7437 41.0646 35.5463 40.4883C36.349 39.9119 36.6943 38.8713 36.6943 37.6019C36.6943 36.9089 36.5777 36.2159 36.349 35.7563C36.1203 35.2943 35.775 34.9466 35.3177 34.6013C34.858 34.3703 34.3983 34.1393 33.8243 34.0249C33.2503 33.9083 32.6787 33.9083 31.988 33.9083H25.3333V41.4123H32.45L32.4477 41.4099ZM32.793 55.0319C33.4813 55.0319 34.1697 54.9153 34.7437 54.8009C35.3232 54.6907 35.8713 54.4541 36.349 54.1079C36.8166 53.7702 37.2077 53.3376 37.497 52.8386C37.7257 52.2623 37.9567 51.5693 37.9567 50.7619C37.9567 49.1449 37.497 47.9899 36.58 47.1826C35.6607 46.4896 34.3983 46.1443 32.9073 46.1443H25.3333V55.0343L32.793 55.0319ZM54.941 54.9153C55.858 55.8393 57.2347 56.3013 59.071 56.3013C60.3333 56.3013 61.4813 55.9559 62.3983 55.3796C63.3177 54.6866 63.8917 53.9936 64.1203 53.3006H69.7437C68.8243 56.0703 67.4477 58.0326 65.6137 59.3019C63.775 60.4569 61.5957 61.1499 58.9567 61.1499C57.2682 61.1551 55.5939 60.8416 54.0217 60.2259C52.607 59.6952 51.3454 58.8231 50.349 57.6873C49.2834 56.6246 48.4956 55.316 48.0553 53.8769C47.4813 52.3766 47.2503 50.7619 47.2503 48.9139C47.2503 47.1826 47.4813 45.5679 48.0553 44.0653C48.6072 42.6188 49.4238 41.2879 50.4633 40.1406C51.497 39.1023 52.7593 38.1806 54.136 37.6019C55.6683 36.9861 57.3052 36.6723 58.9567 36.6779C60.9073 36.6779 62.6293 37.0256 64.1203 37.8329C65.6137 38.6403 66.7593 39.5643 67.6787 40.9503C68.6165 42.2815 69.3153 43.7659 69.7437 45.3369C69.9723 46.9516 70.0867 48.5686 69.9723 50.4143H53.3333C53.3333 52.2623 54.0217 53.9936 54.941 54.9176V54.9153ZM62.1697 42.7959C61.367 41.9886 60.1047 41.5266 58.6113 41.5266C57.7357 41.5135 56.8698 41.7112 56.0867 42.1029C55.3983 42.4506 54.941 42.9126 54.4813 43.3746C54.0589 43.8209 53.7794 44.3831 53.6787 44.9893C53.562 45.5679 53.4477 46.0276 53.4477 46.4896H63.775C63.5463 44.7583 62.9723 43.6056 62.1697 42.7959ZM52.071 30.6766H64.923V33.7939H52.0733V30.6766H52.071Z" fill="white"/>
</g>
<defs>
<clipPath id="clip0_1340_5585">
<rect width="88" height="88" rx="24" fill="white"/>
</clipPath>
</defs>
</svg>
