<svg width="48" height="48" viewBox="0 0 48 48" fill="none" xmlns="http://www.w3.org/2000/svg">
<rect width="48" height="48" rx="24" fill="white"/>
<path d="M19.443 17.3501C20.082 17.3501 20.673 17.4001 21.213 17.5481C21.703 17.6381 22.1708 17.8229 22.59 18.0921C22.984 18.3391 23.279 18.6861 23.475 19.1311C23.672 19.5761 23.77 20.1211 23.77 20.7141C23.77 21.4071 23.623 22.0001 23.279 22.4451C22.984 22.8911 22.492 23.2861 21.902 23.5831C22.738 23.8311 23.377 24.2761 23.77 24.8691C24.164 25.4631 24.41 26.2051 24.41 27.0461C24.41 27.7391 24.262 28.3321 24.016 28.8271C23.77 29.3221 23.377 29.7671 22.934 30.0641C22.4528 30.3825 21.9208 30.6165 21.361 30.7561C20.771 30.9051 20.181 31.0041 19.591 31.0041H13V17.3501H19.443ZM19.049 22.8901C19.59 22.8901 20.033 22.7421 20.377 22.4951C20.721 22.2481 20.869 21.8021 20.869 21.2581C20.869 20.9611 20.819 20.6641 20.721 20.4671C20.623 20.2691 20.475 20.1201 20.279 19.9721C20.082 19.8731 19.885 19.7741 19.639 19.7251C19.393 19.6751 19.148 19.6751 18.852 19.6751H16V22.8911H19.05L19.049 22.8901ZM19.197 28.7281C19.492 28.7281 19.787 28.6781 20.033 28.6291C20.2814 28.5819 20.5163 28.4805 20.721 28.3321C20.9214 28.1873 21.089 28.002 21.213 27.7881C21.311 27.5411 21.41 27.2441 21.41 26.8981C21.41 26.2051 21.213 25.7101 20.82 25.3641C20.426 25.0671 19.885 24.9191 19.246 24.9191H16V28.7291L19.197 28.7281ZM28.689 28.6781C29.082 29.0741 29.672 29.2721 30.459 29.2721C31 29.2721 31.492 29.1241 31.885 28.8771C32.279 28.5801 32.525 28.2831 32.623 27.9861H35.033C34.639 29.1731 34.049 30.0141 33.263 30.5581C32.475 31.0531 31.541 31.3501 30.41 31.3501C29.6864 31.3523 28.9688 31.2179 28.295 30.9541C27.6887 30.7266 27.148 30.3529 26.721 29.8661C26.2643 29.4107 25.9267 28.8498 25.738 28.2331C25.492 27.5901 25.393 26.8981 25.393 26.1061C25.393 25.3641 25.492 24.6721 25.738 24.0281C25.9745 23.4082 26.3245 22.8378 26.77 22.3461C27.213 21.9011 27.754 21.5061 28.344 21.2581C29.0007 20.9942 29.7022 20.8597 30.41 20.8621C31.246 20.8621 31.984 21.0111 32.623 21.3571C33.263 21.7031 33.754 22.0991 34.148 22.6931C34.5499 23.2636 34.8494 23.8998 35.033 24.5731C35.131 25.2651 35.18 25.9581 35.131 26.7491H28C28 27.5411 28.295 28.2831 28.689 28.6791V28.6781ZM31.787 23.4841C31.443 23.1381 30.902 22.9401 30.262 22.9401C29.8867 22.9345 29.5156 23.0192 29.18 23.1871C28.885 23.3361 28.689 23.5341 28.492 23.7321C28.311 23.9234 28.1912 24.1643 28.148 24.4241C28.098 24.6721 28.049 24.8691 28.049 25.0671H32.475C32.377 24.3251 32.131 23.8311 31.787 23.4841ZM27.459 18.2901H32.967V19.6261H27.46V18.2901H27.459Z" fill="black"/>
</svg>
