<svg width="48" height="48" viewBox="0 0 48 48" fill="none" xmlns="http://www.w3.org/2000/svg">
<rect width="48" height="48" rx="24" fill="white"/>
<path d="M31.1901 23.6148C31.1163 22.1981 30.6236 20.8352 29.7744 19.6989C29.5157 19.9776 29.2391 20.2391 28.9464 20.4819C28.0472 21.2288 27.0424 21.8384 25.9647 22.2909C26.115 22.6059 26.2527 22.911 26.3742 23.199V23.2017C26.4085 23.2822 26.4415 23.3632 26.4732 23.4447C27.8358 23.2917 29.2722 23.3475 30.6645 23.5356C30.8499 23.5608 31.0245 23.5878 31.1901 23.6148ZM22.7436 16.9098C23.6207 18.1457 24.4295 19.4286 25.1664 20.7528C26.2671 20.319 27.177 19.7718 27.9096 19.1625C28.1639 18.9529 28.4033 18.7259 28.626 18.483C27.3309 17.3937 25.6923 16.7976 24 16.8C23.5788 16.7997 23.1584 16.8362 22.7436 16.9089V16.9098ZM17.0277 22.1973C17.6408 22.1818 18.2532 22.1449 18.8637 22.0866C20.3394 21.9546 21.8024 21.7073 23.2395 21.3468C22.4885 20.042 21.6776 18.7725 20.8095 17.5425C19.8822 18.0019 19.0646 18.6553 18.4121 19.4584C17.7596 20.2615 17.2875 21.1956 17.0277 22.1973ZM18.4047 28.5315C18.7539 28.0212 19.2129 27.447 19.8222 26.8224C21.1308 25.4814 22.6752 24.4374 24.4626 23.8614L24.5184 23.8452C24.3699 23.5176 24.2304 23.2251 24.09 22.9497C22.4376 23.4312 20.697 23.7318 18.9627 23.8875C18.1167 23.964 17.358 23.9973 16.8 24.0027C16.7984 25.652 17.3646 27.2515 18.4047 28.5315ZM26.7045 30.6735C26.3574 28.9232 25.8662 27.2047 25.2357 25.5354C23.4339 26.1897 21.9984 27.1464 20.8887 28.2876C20.4409 28.7397 20.0434 29.2392 19.7034 29.7771C20.9443 30.703 22.4517 31.2022 24 31.2C24.9269 31.2013 25.8453 31.0231 26.7045 30.6753V30.6735ZM28.3902 29.706C29.7953 28.6258 30.7526 27.0651 31.0785 25.323C30.7725 25.2465 30.3846 25.17 29.958 25.1106C29.0095 24.974 28.0471 24.964 27.096 25.0809C27.6316 26.5918 28.0639 28.1365 28.3902 29.706ZM24 33C19.0293 33 15 28.9707 15 24C15 19.0293 19.0293 15 24 15C28.9707 15 33 19.0293 33 24C33 28.9707 28.9707 33 24 33Z" fill="black"/>
</svg>
