<svg width="88" height="88" viewBox="0 0 88 88" fill="none" xmlns="http://www.w3.org/2000/svg">
<g clip-path="url(#clip0_1340_5590)">
<rect width="88" height="88" rx="24" fill="#FF3185"/>
<path d="M7.55427 25.2367C10.4964 25.2367 13.5682 26.6501 16.6506 29.7681C19.7436 32.897 22.6672 37.578 25.1866 43.6036C30.2201 55.642 33.4044 72.4811 33.4044 91.2367C33.4044 109.992 30.2201 126.831 25.1866 138.87C22.6672 144.895 19.7436 149.576 16.6506 152.705C13.5682 155.823 10.4964 157.237 7.55428 157.237C4.61214 157.237 1.54033 155.823 -1.54201 152.705C-4.63509 149.576 -7.55865 144.895 -10.0781 138.87C-15.1116 126.831 -18.2959 109.992 -18.2959 91.2367C-18.2959 72.4811 -15.1116 55.6421 -10.0781 43.6036C-7.55865 37.578 -4.6351 32.897 -1.54201 29.7681C1.54033 26.6501 4.61214 25.2367 7.55427 25.2367Z" stroke="#C31A5F" stroke-width="6"/>
<path d="M44.4253 25.2367C47.3674 25.2367 50.4393 26.6501 53.5216 29.7681C56.6147 32.897 59.5382 37.578 62.0577 43.6036C67.0912 55.642 70.2755 72.4811 70.2755 91.2367C70.2755 109.992 67.0912 126.831 62.0577 138.87C59.5382 144.895 56.6147 149.576 53.5216 152.705C50.4393 155.823 47.3675 157.237 44.4253 157.237C41.4832 157.237 38.4114 155.823 35.329 152.705C32.236 149.576 29.3124 144.895 26.793 138.87C21.7595 126.831 18.5751 109.992 18.5751 91.2367C18.5751 72.4811 21.7595 55.6421 26.793 43.6036C29.3124 37.578 32.236 32.897 35.329 29.7681C38.4114 26.6501 41.4832 25.2367 44.4253 25.2367Z" stroke="#C31A5F" stroke-width="6"/>
<path d="M82.739 25.2367C85.6811 25.2367 88.7529 26.6501 91.8352 29.7681C94.9283 32.897 97.8519 37.578 100.371 43.6036C105.405 55.642 108.589 72.4811 108.589 91.2367C108.589 109.992 105.405 126.831 100.371 138.87C97.8519 144.895 94.9283 149.576 91.8353 152.705C88.7529 155.823 85.6811 157.237 82.739 157.237C79.7968 157.237 76.725 155.823 73.6427 152.705C70.5496 149.576 67.626 144.895 65.1066 138.87C60.0731 126.831 56.8888 109.992 56.8888 91.2367C56.8888 72.4811 60.0731 55.6421 65.1066 43.6036C67.626 37.578 70.5496 32.897 73.6427 29.7681C76.725 26.6501 79.7968 25.2367 82.739 25.2367Z" stroke="#C31A5F" stroke-width="6"/>
<path d="M60.7769 43.1012C60.6047 39.7956 59.4551 36.6156 57.4736 33.9641C56.8699 34.6143 56.2245 35.2246 55.5416 35.7911C53.4435 37.5338 51.099 38.9562 48.5843 40.0121C48.935 40.7471 49.2563 41.459 49.5398 42.131V42.1373C49.6198 42.3251 49.6968 42.5141 49.7708 42.7043C52.9502 42.3473 56.3018 42.4775 59.5505 42.9164C59.9831 42.9752 60.3905 43.0382 60.7769 43.1012ZM41.0684 27.4562C43.1149 30.3399 45.0021 33.3333 46.7216 36.4232C49.2899 35.411 51.413 34.1342 53.1224 32.7125C53.7158 32.2235 54.2743 31.6937 54.794 31.127C51.7721 28.5854 47.9486 27.1944 44 27.2C43.0173 27.1993 42.0364 27.2843 41.0684 27.4541V27.4562ZM27.7313 39.7937C29.1619 39.7576 30.5908 39.6714 32.0153 39.5354C35.4585 39.2274 38.8724 38.6503 42.2255 37.8092C40.4731 34.7646 38.5811 31.8026 36.5555 28.9325C34.3919 30.0043 32.4841 31.529 30.9616 33.403C29.4391 35.2769 28.3374 37.4565 27.7313 39.7937ZM30.9443 54.5735C31.7591 53.3828 32.8301 52.043 34.2518 50.5856C37.3052 47.4566 40.9088 45.0206 45.0794 43.6766L45.2096 43.6388C44.8631 42.8744 44.5376 42.1919 44.21 41.5493C40.3544 42.6728 36.293 43.3742 32.2463 43.7375C30.2723 43.916 28.502 43.9937 27.2 44.0063C27.1963 47.8547 28.5173 51.5868 30.9443 54.5735ZM50.3105 59.5715C49.5007 55.4875 48.3544 51.4776 46.8833 47.5826C42.6791 49.1093 39.3296 51.3416 36.7403 54.0044C35.6953 55.0594 34.768 56.2247 33.9746 57.4799C36.8701 59.6404 40.3873 60.8052 44 60.8C46.1628 60.8031 48.3058 60.3873 50.3105 59.5757V59.5715ZM54.2438 57.314C57.5225 54.7935 59.756 51.152 60.5165 47.087C59.8025 46.9085 58.8974 46.73 57.902 46.5914C55.6889 46.2727 53.4432 46.2494 51.224 46.5221C52.4736 50.0476 53.4825 53.6518 54.2438 57.314ZM44 65C32.4017 65 23 55.5983 23 44C23 32.4017 32.4017 23 44 23C55.5983 23 65 32.4017 65 44C65 55.5983 55.5983 65 44 65Z" fill="white"/>
</g>
<defs>
<clipPath id="clip0_1340_5590">
<rect width="88" height="88" rx="24" fill="white"/>
</clipPath>
</defs>
</svg>
