<svg width="48" height="48" viewBox="0 0 48 48" fill="none" xmlns="http://www.w3.org/2000/svg">
<rect width="48" height="48" rx="24" fill="white"/>
<path d="M24 21.3C23.2839 21.3 22.5972 21.5845 22.0908 22.0908C21.5845 22.5972 21.3 23.2839 21.3 24C21.3 24.7161 21.5845 25.4028 22.0908 25.9092C22.5972 26.4155 23.2839 26.7 24 26.7C24.7161 26.7 25.4028 26.4155 25.9092 25.9092C26.4155 25.4028 26.7 24.7161 26.7 24C26.7 23.2839 26.4155 22.5972 25.9092 22.0908C25.4028 21.5845 24.7161 21.3 24 21.3ZM24 19.5C25.1935 19.5 26.3381 19.9741 27.182 20.818C28.0259 21.6619 28.5 22.8065 28.5 24C28.5 25.1935 28.0259 26.3381 27.182 27.182C26.3381 28.0259 25.1935 28.5 24 28.5C22.8065 28.5 21.6619 28.0259 20.818 27.182C19.9741 26.3381 19.5 25.1935 19.5 24C19.5 22.8065 19.9741 21.6619 20.818 20.818C21.6619 19.9741 22.8065 19.5 24 19.5ZM29.85 19.275C29.85 19.5734 29.7315 19.8595 29.5205 20.0705C29.3095 20.2815 29.0234 20.4 28.725 20.4C28.4266 20.4 28.1405 20.2815 27.9295 20.0705C27.7185 19.8595 27.6 19.5734 27.6 19.275C27.6 18.9766 27.7185 18.6905 27.9295 18.4795C28.1405 18.2685 28.4266 18.15 28.725 18.15C29.0234 18.15 29.3095 18.2685 29.5205 18.4795C29.7315 18.6905 29.85 18.9766 29.85 19.275ZM24 16.8C21.7734 16.8 21.4098 16.8063 20.3739 16.8522C19.6683 16.8855 19.1949 16.98 18.7557 17.151C18.3882 17.2859 18.0559 17.5022 17.7837 17.7837C17.502 18.0559 17.2854 18.3881 17.1501 18.7557C16.9791 19.1967 16.8846 19.6692 16.8522 20.3739C16.8054 21.3675 16.8 21.7149 16.8 24C16.8 26.2266 16.8063 26.5902 16.8522 27.6261C16.8855 28.3308 16.98 28.8051 17.1501 29.2434C17.3031 29.6349 17.4831 29.9166 17.7819 30.2154C18.0852 30.5178 18.3669 30.6987 18.7539 30.8481C19.1985 31.02 19.6719 31.1154 20.3739 31.1478C21.3675 31.1946 21.7149 31.2 24 31.2C26.2266 31.2 26.5902 31.1937 27.6261 31.1478C28.3299 31.1145 28.8042 31.02 29.2434 30.8499C29.6104 30.7143 29.9425 30.4984 30.2154 30.2181C30.5187 29.9148 30.6996 29.6331 30.849 29.2461C31.02 28.8024 31.1154 28.3281 31.1478 27.6261C31.1946 26.6325 31.2 26.2851 31.2 24C31.2 21.7734 31.1937 21.4098 31.1478 20.3739C31.1145 19.6701 31.02 19.1949 30.849 18.7557C30.7134 18.3885 30.4972 18.0564 30.2163 17.7837C29.9443 17.5019 29.612 17.2852 29.2443 17.1501C28.8033 16.9791 28.3299 16.8846 27.6261 16.8522C26.6325 16.8054 26.2851 16.8 24 16.8ZM24 15C26.4453 15 26.7504 15.009 27.7098 15.054C28.6683 15.099 29.3208 15.2493 29.895 15.4725C30.489 15.7011 30.9894 16.0107 31.4898 16.5102C31.9474 16.9601 32.3016 17.5043 32.5275 18.105C32.7498 18.6783 32.901 19.3317 32.946 20.2902C32.9883 21.2496 33 21.5547 33 24C33 26.4453 32.991 26.7504 32.946 27.7098C32.901 28.6683 32.7498 29.3208 32.5275 29.895C32.3022 30.496 31.948 31.0404 31.4898 31.4898C31.0398 31.9473 30.4956 32.3014 29.895 32.5275C29.3217 32.7498 28.6683 32.901 27.7098 32.946C26.7504 32.9883 26.4453 33 24 33C21.5547 33 21.2496 32.991 20.2902 32.946C19.3317 32.901 18.6792 32.7498 18.105 32.5275C17.5041 32.302 16.9598 31.9478 16.5102 31.4898C16.0525 31.04 15.6983 30.4957 15.4725 29.895C15.2493 29.3217 15.099 28.6683 15.054 27.7098C15.0117 26.7504 15 26.4453 15 24C15 21.5547 15.009 21.2496 15.054 20.2902C15.099 19.3308 15.2493 18.6792 15.4725 18.105C15.6977 17.504 16.0519 16.9596 16.5102 16.5102C16.9599 16.0523 17.5042 15.6982 18.105 15.4725C18.6792 15.2493 19.3308 15.099 20.2902 15.054C21.2496 15.0117 21.5547 15 24 15Z" fill="black"/>
</svg>
