<svg width="88" height="88" viewBox="0 0 88 88" fill="none" xmlns="http://www.w3.org/2000/svg">
<g clip-path="url(#clip0_1340_5573)">
<rect width="88" height="88" rx="24" fill="#FF3E3E"/>
<path d="M170.095 83.2483C168.605 85.7852 165.831 87.7181 161.581 88.7968C157.316 89.8791 151.8 90.0293 145.328 89.15C132.398 87.3933 116.266 81.6107 100.094 72.1118C83.9213 62.6129 71.0143 51.3389 63.1832 40.9017C59.2635 35.6775 56.708 30.786 55.5766 26.5342C54.449 22.2973 54.7861 18.9327 56.2762 16.3959C57.7662 13.859 60.5407 11.9261 64.7903 10.8474C69.0548 9.76505 74.5717 9.61485 81.0433 10.4942C93.9729 12.2509 110.105 18.0335 126.278 27.5324C142.45 37.0313 155.357 48.3053 163.188 58.7425C167.108 63.9667 169.663 68.8582 170.795 73.11C171.922 77.3469 171.585 80.7114 170.095 83.2483Z" stroke="#CA0E0E" stroke-width="6"/>
<path d="M151.421 115.041C149.931 117.578 147.157 119.511 142.907 120.589C138.643 121.672 133.126 121.822 126.654 120.943C113.725 119.186 97.5922 113.403 81.4199 103.904C65.2477 94.4055 52.3407 83.1315 44.5096 72.6943C40.5899 67.4701 38.0344 62.5786 36.9029 58.3268C35.7754 54.0899 36.1125 50.7254 37.6025 48.1885C39.0926 45.6516 41.867 43.7187 46.1167 42.64C50.3812 41.5577 55.898 41.4075 62.3697 42.2868C75.2993 44.0435 91.4317 49.8261 107.604 59.325C123.776 68.8239 136.683 80.0979 144.514 90.5351C148.434 95.7593 150.99 100.651 152.121 104.903C153.249 109.14 152.912 112.504 151.421 115.041Z" stroke="#CA0E0E" stroke-width="6"/>
<path d="M132.017 148.077C130.527 150.614 127.753 152.547 123.503 153.626C119.239 154.708 113.722 154.858 107.25 153.979C94.3204 152.222 78.188 146.44 62.0157 136.941C45.8434 127.442 32.9364 116.168 25.1053 105.731C21.1856 100.507 18.6301 95.6151 17.4987 91.3633C16.3711 87.1264 16.7082 83.7619 18.1983 81.225C19.6883 78.6881 22.4628 76.7552 26.7124 75.6765C30.9769 74.5941 36.4938 74.444 42.9654 75.3233C55.895 77.08 72.0275 82.8626 88.1997 92.3615C104.372 101.86 117.279 113.134 125.11 123.572C129.03 128.796 131.585 133.687 132.717 137.939C133.844 142.176 133.507 145.541 132.017 148.077Z" stroke="#CA0E0E" stroke-width="6"/>
<path d="M44 37.7C42.3291 37.7 40.7267 38.3637 39.5452 39.5452C38.3637 40.7267 37.7 42.3291 37.7 44C37.7 45.6709 38.3637 47.2733 39.5452 48.4548C40.7267 49.6363 42.3291 50.3 44 50.3C45.6709 50.3 47.2733 49.6363 48.4548 48.4548C49.6363 47.2733 50.3 45.6709 50.3 44C50.3 42.3291 49.6363 40.7267 48.4548 39.5452C47.2733 38.3637 45.6709 37.7 44 37.7ZM44 33.5C46.7848 33.5 49.4555 34.6062 51.4246 36.5754C53.3938 38.5445 54.5 41.2152 54.5 44C54.5 46.7848 53.3938 49.4555 51.4246 51.4246C49.4555 53.3938 46.7848 54.5 44 54.5C41.2152 54.5 38.5445 53.3938 36.5754 51.4246C34.6062 49.4555 33.5 46.7848 33.5 44C33.5 41.2152 34.6062 38.5445 36.5754 36.5754C38.5445 34.6062 41.2152 33.5 44 33.5ZM57.65 32.975C57.65 33.6712 57.3734 34.3389 56.8812 34.8312C56.3889 35.3234 55.7212 35.6 55.025 35.6C54.3288 35.6 53.6611 35.3234 53.1688 34.8312C52.6766 34.3389 52.4 33.6712 52.4 32.975C52.4 32.2788 52.6766 31.6111 53.1688 31.1188C53.6611 30.6266 54.3288 30.35 55.025 30.35C55.7212 30.35 56.3889 30.6266 56.8812 31.1188C57.3734 31.6111 57.65 32.2788 57.65 32.975ZM44 27.2C38.8046 27.2 37.9562 27.2147 35.5391 27.3218C33.8927 27.3995 32.7881 27.62 31.7633 28.019C30.9057 28.3339 30.1304 28.8385 29.4953 29.4953C28.838 30.1303 28.3326 30.9056 28.0169 31.7633C27.6179 32.7923 27.3974 33.8948 27.3218 35.5391C27.2126 37.8575 27.2 38.6681 27.2 44C27.2 49.1954 27.2147 50.0438 27.3218 52.4609C27.3995 54.1052 27.62 55.2119 28.0169 56.2346C28.3739 57.1481 28.7939 57.8054 29.4911 58.5026C30.1988 59.2082 30.8561 59.6303 31.7591 59.9789C32.7965 60.38 33.9011 60.6026 35.5391 60.6782C37.8575 60.7874 38.6681 60.8 44 60.8C49.1954 60.8 50.0438 60.7853 52.4609 60.6782C54.1031 60.6005 55.2098 60.38 56.2346 59.9831C57.0909 59.6667 57.8658 59.163 58.5026 58.5089C59.2103 57.8012 59.6324 57.1439 59.981 56.2409C60.38 55.2056 60.6026 54.0989 60.6782 52.4609C60.7874 50.1425 60.8 49.3319 60.8 44C60.8 38.8046 60.7853 37.9562 60.6782 35.5391C60.6005 33.8969 60.38 32.7881 59.981 31.7633C59.6645 30.9065 59.1601 30.1315 58.5047 29.4953C57.8699 28.8377 57.0946 28.3323 56.2367 28.0169C55.2077 27.6179 54.1031 27.3974 52.4609 27.3218C50.1425 27.2126 49.3319 27.2 44 27.2ZM44 23C49.7057 23 50.4176 23.021 52.6562 23.126C54.8927 23.231 56.4152 23.5817 57.755 24.1025C59.141 24.6359 60.3086 25.3583 61.4762 26.5238C62.544 27.5736 63.3703 28.8434 63.8975 30.245C64.4162 31.5827 64.769 33.1073 64.874 35.3438C64.9727 37.5824 65 38.2943 65 44C65 49.7057 64.979 50.4176 64.874 52.6562C64.769 54.8927 64.4162 56.4152 63.8975 57.755C63.3718 59.1573 62.5454 60.4275 61.4762 61.4762C60.4261 62.5437 59.1563 63.3699 57.755 63.8975C56.4173 64.4162 54.8927 64.769 52.6562 64.874C50.4176 64.9727 49.7057 65 44 65C38.2943 65 37.5824 64.979 35.3438 64.874C33.1073 64.769 31.5848 64.4162 30.245 63.8975C28.8429 63.3714 27.5728 62.545 26.5238 61.4762C25.4558 60.4266 24.6295 59.1567 24.1025 57.755C23.5817 56.4173 23.231 54.8927 23.126 52.6562C23.0273 50.4176 23 49.7057 23 44C23 38.2943 23.021 37.5824 23.126 35.3438C23.231 33.1052 23.5817 31.5848 24.1025 30.245C24.628 28.8426 25.4545 27.5724 26.5238 26.5238C27.5731 25.4554 28.8431 24.629 30.245 24.1025C31.5848 23.5817 33.1052 23.231 35.3438 23.126C37.5824 23.0273 38.2943 23 44 23Z" fill="white"/>
</g>
<defs>
<clipPath id="clip0_1340_5573">
<rect width="88" height="88" rx="24" fill="white"/>
</clipPath>
</defs>
</svg>
