<svg width="88" height="88" viewBox="0 0 88 88" fill="none" xmlns="http://www.w3.org/2000/svg">
<g clip-path="url(#clip0_1340_5574)">
<rect width="88" height="88" rx="24" fill="#0EA8FF"/>
<path d="M76.0951 12.2483C74.605 14.7852 71.8306 16.7181 67.5809 17.7968C63.3164 18.8791 57.7996 19.0293 51.3279 18.15C38.3983 16.3933 22.2659 10.6107 6.09359 1.11178C-10.0787 -8.38714 -22.9857 -19.6611 -30.8168 -30.0983C-34.7365 -35.3225 -37.292 -40.214 -38.4234 -44.4658C-39.551 -48.7027 -39.2139 -52.0673 -37.7238 -54.6041C-36.2338 -57.141 -33.4593 -59.0739 -29.2097 -60.1526C-24.9452 -61.235 -19.4283 -61.3851 -12.9567 -60.5058C-0.0270653 -58.7491 16.1054 -52.9665 32.2777 -43.4676C48.4499 -33.9687 61.3569 -22.6947 69.188 -12.2575C73.1077 -7.03334 75.6632 -2.14177 76.7947 2.10996C77.9222 6.34692 77.5852 9.71144 76.0951 12.2483Z" stroke="#0479E6" stroke-width="6"/>
<path d="M57.4214 44.0409C55.9314 46.5778 53.1569 48.5107 48.9073 49.5894C44.6428 50.6717 39.1259 50.8219 32.6543 49.9426C19.7247 48.1859 3.59223 42.4033 -12.5801 32.9044C-28.7523 23.4055 -41.6593 12.1315 -49.4904 1.69428C-53.4101 -3.52987 -55.9656 -8.42143 -57.0971 -12.6732C-58.2246 -16.9101 -57.8875 -20.2746 -56.3975 -22.8115C-54.9074 -25.3484 -52.133 -27.2813 -47.8833 -28.36C-43.6188 -29.4423 -38.102 -29.5925 -31.6303 -28.7132C-18.7007 -26.9565 -2.56826 -21.1739 13.604 -11.675C29.7763 -2.17607 42.6833 9.09794 50.5144 19.5351C54.4341 24.7593 56.9896 29.6508 58.121 33.9026C59.2486 38.1395 58.9115 41.504 57.4214 44.0409Z" stroke="#0479E6" stroke-width="6"/>
<path d="M38.0172 77.0774C36.5271 79.6143 33.7527 81.5472 29.503 82.6259C25.2385 83.7082 19.7217 83.8584 13.25 82.9791C0.320422 81.2224 -15.812 75.4398 -31.9843 65.9409C-48.1566 56.442 -61.0636 45.168 -68.8946 34.7308C-72.8144 29.5066 -75.3699 24.6151 -76.5013 20.3633C-77.6288 16.1264 -77.2918 12.7619 -75.8017 10.225C-74.3117 7.68806 -71.5372 5.75516 -67.2876 4.67653C-63.0231 3.59415 -57.5062 3.44396 -51.0346 4.32327C-38.105 6.08004 -21.9725 11.8626 -5.80024 21.3615C10.372 30.8604 23.279 42.1344 31.1101 52.5716C35.0298 57.7958 37.5853 62.6873 38.7168 66.9391C39.8443 71.176 39.5073 74.5405 38.0172 77.0774Z" stroke="#0479E6" stroke-width="6"/>
<path fill-rule="evenodd" clip-rule="evenodd" d="M41.7218 29.8236L27.362 36.3818C26.5811 36.7389 26.0878 37.4891 26.0878 38.3236V42.0335L26.0878 42.0442L26.0878 42.0548V54.343C26.0878 55.1775 26.5811 55.9276 27.3619 56.2847L41.7165 62.8406L41.7218 62.843C42.3233 63.1113 43.01 63.1114 43.6114 62.8431L43.617 62.8406L57.9715 56.2848C58.7523 55.9277 59.2457 55.1775 59.2457 54.343V40.9729C59.0975 40.8796 58.9485 40.782 58.802 40.6839C58.0529 40.1823 57.138 39.5089 56.2717 38.8676C56.1736 38.795 56.0761 38.7227 55.9793 38.651C55.1979 38.0722 54.4651 37.5293 53.8666 37.1128C53.5279 36.8771 53.2745 36.7117 53.1053 36.6129C53.1009 36.6103 53.0967 36.6079 53.0927 36.6055C52.7421 36.505 52.4195 36.3207 52.1563 36.0654C52.0087 35.9223 51.6432 35.5659 51.4336 35.0621C51.3404 34.838 51.2382 34.4901 51.2638 34.0716C50.9786 33.7886 52.3914 34.1242 51.8319 33.6279C51.795 33.5952 51.5431 33.5116 51.5089 33.4768C51.3406 33.3782 49.5489 32.593 49.3228 32.4382L43.6108 29.8232C43.0095 29.5553 42.3231 29.5554 41.7218 29.8236ZM21.6668 42.0442L21.6667 42.0335V38.3236C21.6667 35.8128 23.1628 33.5606 25.4767 32.5023L39.8591 25.9338C41.6419 25.1331 43.6916 25.1332 45.4744 25.9339L45.4891 25.9405L51.3912 28.6426C51.5172 28.7002 51.6373 28.7694 51.7499 28.849C52.1432 29.1271 52.3069 29.2045 52.3561 29.2278L52.3644 29.2317C52.3718 29.2353 52.4854 29.289 52.5924 29.3515C52.7094 29.4197 53.0285 29.6138 53.2981 29.9842C53.3184 30.0121 53.3377 30.04 53.356 30.0677C54.2494 30.8745 54.859 31.486 55.2492 31.9659C55.4587 32.2236 55.7113 32.5699 55.8725 32.9798C55.9087 33.0717 55.946 33.1832 55.9769 33.31C56.1303 33.4117 56.287 33.5188 56.4437 33.6279C57.1001 34.0847 57.8907 34.6705 58.6604 35.2407C58.7586 35.3135 58.8564 35.386 58.9536 35.4579C59.8364 36.1114 60.6664 36.7208 61.3135 37.1541C61.5798 37.3325 61.779 37.4565 61.9157 37.5341C62.2292 37.5987 62.5287 37.7295 62.791 37.9224C63.3427 38.3278 63.6667 38.9604 63.6667 39.6317V54.343C63.6667 56.8539 62.1706 59.106 59.8567 60.1643L45.4744 66.7328C43.6916 67.5335 41.6419 67.5335 39.8591 66.7328L39.8462 66.727L25.4778 60.1648C23.1639 59.1065 21.6667 56.8538 21.6667 54.343V42.0548L21.6668 42.0442Z" fill="white"/>
<path fill-rule="evenodd" clip-rule="evenodd" d="M34.9242 39.3333C35.8028 39.3333 36.5151 40.0565 36.5151 40.9487V47.4102C36.5151 48.8873 37.7119 50.1025 39.1666 50.1025C40.6213 50.1025 41.8181 48.8873 41.8181 47.4102V40.9487C41.8181 40.0565 42.5304 39.3333 43.409 39.3333C44.2876 39.3333 44.9999 40.0565 44.9999 40.9487V47.4102C44.9999 50.6716 42.3786 53.3333 39.1666 53.3333C35.9546 53.3333 33.3333 50.6716 33.3333 47.4102V40.9487C33.3333 40.0565 34.0455 39.3333 34.9242 39.3333Z" fill="white"/>
<path fill-rule="evenodd" clip-rule="evenodd" d="M49.6666 39.3333C50.9552 39.3333 51.9999 40.0633 51.9999 40.9637V51.7029C51.9999 52.6033 50.9552 53.3333 49.6666 53.3333C48.3779 53.3333 47.3333 52.6033 47.3333 51.7029V40.9637C47.3333 40.0633 48.3779 39.3333 49.6666 39.3333Z" fill="white"/>
<path fill-rule="evenodd" clip-rule="evenodd" d="M61.956 40.355C66.2839 39.2542 69.461 35.3266 69.461 30.6734C69.461 25.1447 64.983 20.6667 59.4543 20.6667C54.2007 20.6667 49.9228 24.6944 49.4975 29.8229C49.4475 30.0981 49.4475 30.3983 49.4475 30.6734C49.4475 36.2022 53.9255 40.6802 59.4543 40.6802C60.3299 40.6802 61.1554 40.5801 61.956 40.355ZM62.901 27.9605C62.901 28.7166 62.6117 29.3392 62.078 29.8062C62.8118 30.3177 63.2123 31.096 63.2346 31.9855C63.2346 33.7867 61.8779 34.8986 59.6764 34.8986C57.4749 34.8986 56.1186 33.7867 56.1186 31.9855C56.1186 31.1183 56.5189 30.3399 57.2305 29.8062C56.6968 29.3392 56.4075 28.6943 56.4075 27.9605C56.4075 26.2705 57.6975 25.1141 59.6544 25.1141C61.6112 25.1141 62.901 26.2482 62.901 27.9605ZM58.6759 28.0717C58.6759 28.5832 59.054 28.9167 59.6544 28.9167C60.2548 28.9167 60.6328 28.5832 60.6328 28.0717C60.6328 27.4713 60.1213 27.249 59.6544 27.249C59.1874 27.249 58.6759 27.4491 58.6759 28.0717ZM60.9441 31.7631C60.9441 31.0293 60.277 30.7624 59.6544 30.7624C59.343 30.7624 58.3646 30.8514 58.3646 31.7631C58.3646 32.408 58.8538 32.786 59.6544 32.786C60.4549 32.786 60.9441 32.408 60.9441 31.7631Z" fill="white"/>
</g>
<defs>
<clipPath id="clip0_1340_5574">
<rect width="88" height="88" rx="24" fill="white"/>
</clipPath>
</defs>
</svg>
