<svg width="587" height="466" viewBox="0 0 587 466" fill="none" xmlns="http://www.w3.org/2000/svg">
<path fill-rule="evenodd" clip-rule="evenodd" d="M43 301.273C43 318.439 56.9163 332.356 74.0829 332.356L193.271 332.356C210.438 332.356 224.354 318.439 224.354 301.273C224.354 284.106 210.438 270.19 193.271 270.19L167.331 270.19L167.331 248.025C167.331 225.933 149.423 208.025 127.331 208.025L105.166 208.025L105.166 230.221C105.166 230.21 105.166 230.2 105.166 230.19L105.166 182.083C105.166 164.916 91.2498 151 74.0834 151C56.9169 151 43.0007 164.916 43.0007 182.083L43.0007 301.055C43.0002 301.127 43 301.2 43 301.273Z" fill="#FF3E3E"/>
<path fill-rule="evenodd" clip-rule="evenodd" d="M377.895 232.242C364.249 240.121 348.021 242.237 332.781 238.125C317.541 234.013 304.538 224.01 296.632 210.316C288.726 196.622 286.565 180.36 290.624 165.106C294.683 149.852 304.629 136.856 318.276 128.977L284.226 70.0001C263.38 82.0356 246.564 99.6453 235.477 120.608C231.016 129.043 227.483 138.021 224.988 147.397C216.293 180.075 220.923 214.913 237.86 244.249C254.797 273.584 282.653 295.013 315.3 303.822C324.667 306.349 334.208 307.778 343.744 308.132C367.441 309.013 391.099 303.254 411.945 291.219L377.895 232.242Z" fill="#616DFF"/>
<circle cx="31" cy="31" r="29.5" transform="matrix(-1 0 0 1 190 123)" stroke="white" stroke-width="3"/>
<rect width="135.735" height="140.099" rx="7.90399" transform="matrix(-0.986715 -0.162463 -0.162461 0.986715 586.98 319.526)" fill="#FFFF33"/>
<mask id="path-5-inside-1_1433_7915" fill="white">
<path fill-rule="evenodd" clip-rule="evenodd" d="M144.835 267.326L144.835 457.022H283.812L283.812 267.347C283.812 267.34 283.812 267.333 283.812 267.326C283.812 267.319 283.812 267.312 283.812 267.305L283.812 266.997H283.811C283.634 228.77 252.591 197.837 214.323 197.837C176.056 197.837 145.013 228.77 144.835 266.997H144.835V267.326Z"/>
</mask>
<path d="M144.835 267.326H142.183H144.835ZM144.835 457.022V459.673H142.183V457.022H144.835ZM283.812 457.022H286.464V459.673H283.812V457.022ZM283.812 267.347H281.16L281.16 267.346L283.812 267.347ZM283.812 267.305L281.16 267.306V267.305H283.812ZM283.812 266.997V264.345H286.464V266.997H283.812ZM283.811 266.997V269.648H281.172L281.16 267.009L283.811 266.997ZM214.323 197.837V195.185V197.837ZM144.835 266.997L147.487 267.009L147.475 269.648H144.835V266.997ZM144.835 266.997H142.183V264.345H144.835V266.997ZM147.486 267.326L147.486 457.022H142.183L142.183 267.326H147.486ZM144.835 454.37H283.812V459.673H144.835V454.37ZM281.16 457.022L281.16 267.347H286.464L286.464 457.022H281.16ZM281.16 267.346C281.16 267.339 281.16 267.333 281.16 267.326H286.464C286.464 267.333 286.464 267.34 286.464 267.348L281.16 267.346ZM281.16 267.326C281.16 267.319 281.16 267.313 281.16 267.306L286.464 267.305C286.464 267.312 286.464 267.319 286.464 267.326H281.16ZM281.16 267.305V266.997H286.464V267.305H281.16ZM283.812 269.648H283.811V264.345H283.812V269.648ZM281.16 267.009C280.989 230.242 251.131 200.489 214.323 200.489V195.185C254.051 195.185 286.279 227.299 286.463 266.985L281.16 267.009ZM214.323 200.489C177.516 200.489 147.658 230.242 147.487 267.009L142.184 266.985C142.368 227.299 174.595 195.185 214.323 195.185V200.489ZM144.835 269.648H144.835V264.345H144.835V269.648ZM147.486 266.997V267.326H142.183V266.997H147.486Z" fill="white" mask="url(#path-5-inside-1_1433_7915)"/>
<ellipse cx="43.4716" cy="43.4719" rx="43.4716" ry="43.4719" transform="matrix(-1 0 0 1 510.944 169)" fill="#1DFFE4"/>
<circle cx="51.5" cy="51.5" r="51.5" transform="matrix(-1 0 0 1 103 363)" fill="#2CFF6D"/>
<rect x="-1.32582" y="1.32582" width="69.9089" height="69.9094" transform="matrix(-1 0 0 1 508.323 0)" stroke="white" stroke-width="2.65164"/>
<rect x="-1.32582" y="1.32582" width="69.9089" height="69.9094" transform="matrix(-1 0 0 1 439.909 68.4146)" stroke="white" stroke-width="2.65164"/>
</svg>
