<svg width="88" height="88" viewBox="0 0 88 88" fill="none" xmlns="http://www.w3.org/2000/svg">
<g clip-path="url(#clip0_1445_5702)">
<path d="M87.9042 0.29126H0.390381V87.8051H87.9042V0.29126Z" fill="#BCFD04"/>
<path d="M26.173 63.0854H8.15729V76.8553H26.173V63.0854Z" fill="#616DFE"/>
<path fill-rule="evenodd" clip-rule="evenodd" d="M26.983 63.0854V76.8552C26.983 77.303 26.6203 77.6657 26.173 77.6657H8.15728C7.7095 77.6657 7.3468 77.303 7.3468 76.8552V63.0854C7.3468 62.6381 7.7095 62.2754 8.15728 62.2754H26.173C26.6203 62.2754 26.983 62.6381 26.983 63.0854ZM26.173 63.0854H8.15728V76.8552H26.173V63.0854Z" fill="black"/>
<path d="M51.7022 48.3013H33.6865V76.8556H51.7022V48.3013Z" fill="#616DFE"/>
<path fill-rule="evenodd" clip-rule="evenodd" d="M52.5123 48.3014V76.8553C52.5123 77.303 52.1496 77.6657 51.7018 77.6657H33.6866C33.2388 77.6657 32.8761 77.303 32.8761 76.8553V48.3014C32.8761 47.8537 33.2388 47.491 33.6866 47.491H51.7018C52.1496 47.491 52.5123 47.8537 52.5123 48.3014ZM51.7018 48.3014H33.6866V76.8553H51.7018V48.3014Z" fill="black"/>
<path d="M77.5751 11.7585H59.5594V76.8552H77.5751V11.7585Z" fill="#1BFDE4"/>
<path fill-rule="evenodd" clip-rule="evenodd" d="M78.3852 11.7585V76.8551C78.3852 77.3029 78.0225 77.6656 77.5752 77.6656H59.5595C59.1117 77.6656 58.749 77.3029 58.749 76.8551V11.7585C58.749 11.3112 59.1117 10.948 59.5595 10.948H77.5752C78.0225 10.948 78.3852 11.3112 78.3852 11.7585ZM77.5752 11.7585H59.5595V76.8551H77.5752V11.7585Z" fill="black"/>
<path d="M61.6782 9.1958H56.5529V14.3212H61.6782V9.1958Z" fill="black"/>
<path fill-rule="evenodd" clip-rule="evenodd" d="M61.971 74.8097V78.9005C61.971 79.3483 61.6083 79.711 61.161 79.711H57.0698C56.6225 79.711 56.2598 79.3483 56.2598 78.9005V74.8097C56.2598 74.3624 56.6225 73.9993 57.0698 73.9993H61.161C61.6083 73.9993 61.971 74.3624 61.971 74.8097ZM61.161 74.8097H57.0698V78.9005H61.161V74.8097Z" fill="black"/>
<path d="M80.1378 9.1958H75.0125V14.3212H80.1378V9.1958Z" fill="black"/>
<path fill-rule="evenodd" clip-rule="evenodd" d="M80.4311 74.8097V78.9005C80.4311 79.3483 80.0679 79.711 79.6206 79.711H75.5298C75.0821 79.711 74.7194 79.3483 74.7194 78.9005V74.8097C74.7194 74.3624 75.0821 73.9993 75.5298 73.9993H79.6206C80.0679 73.9993 80.4311 74.3624 80.4311 74.8097ZM79.6206 74.8097H75.5298V78.9005H79.6206V74.8097Z" fill="black"/>
<path fill-rule="evenodd" clip-rule="evenodd" d="M45.4075 31.5206L52.4718 38.0263L59.3038 11.7585L33.6865 20.7258L40.7508 27.2315L33.9904 34.5724L38.6476 38.8611L45.4075 31.5206Z" fill="white"/>
<path fill-rule="evenodd" clip-rule="evenodd" d="M45.4546 32.6655L39.2436 39.4099C38.9402 39.7391 38.4278 39.7604 38.0986 39.4571L33.4414 35.1684C33.1123 34.865 33.0909 34.3526 33.3943 34.0234L39.6058 27.2785L33.1376 21.3218C32.928 21.1292 32.8352 20.8404 32.8925 20.5619C32.9504 20.2833 33.1497 20.0548 33.4186 19.9609L59.0358 10.9937C59.3183 10.895 59.6324 10.9597 59.8526 11.1624C60.0729 11.3651 60.1633 11.6729 60.0879 11.9627L53.256 38.2299C53.1846 38.5056 52.9735 38.7234 52.7008 38.8036C52.4276 38.8839 52.1324 38.8148 51.9229 38.6223L45.4546 32.6655ZM45.4075 31.5205L52.4718 38.0262L59.3037 11.7585L33.6865 20.7257L40.7508 27.2314L33.9903 34.5723L38.6475 38.861L45.4075 31.5205Z" fill="black"/>
</g>
<defs>
<clipPath id="clip0_1445_5702">
<rect width="88" height="88" rx="8" fill="white"/>
</clipPath>
</defs>
</svg>
