<svg width="69" height="68" viewBox="0 0 69 68" fill="none" xmlns="http://www.w3.org/2000/svg">
<g clip-path="url(#clip0_1433_7949)">
<path d="M68.0156 0.347412H0.015625V67.9717H68.0156V0.347412Z" fill="#616DFE"/>
<mask id="mask0_1433_7949" style="mask-type:luminance" maskUnits="userSpaceOnUse" x="0" y="0" width="69" height="68">
<path d="M58.0156 0.347412H10.0156C4.49278 0.347412 0.015625 4.82457 0.015625 10.3474V57.9717C0.015625 63.4946 4.49278 67.9717 10.0156 67.9717H58.0156C63.5385 67.9717 68.0156 63.4946 68.0156 57.9717V10.3474C68.0156 4.82456 63.5385 0.347412 58.0156 0.347412Z" fill="white"/>
</mask>
<g mask="url(#mask0_1433_7949)">
<path fill-rule="evenodd" clip-rule="evenodd" d="M0.652648 10.8398C0.646276 10.8426 0.642581 10.8442 0.636196 10.8469C-0.158006 11.1859 -1.08052 10.8234 -1.42668 10.0347C-1.77306 9.24664 -1.41369 8.32792 -0.625134 7.97832C-0.618064 7.97518 -0.614098 7.97347 -0.606988 7.97042C-0.384567 7.8753 4.76369 5.69492 9.45974 5.65487C13.1688 5.62331 16.5476 6.89502 17.8018 10.7365C19.0901 14.6827 17.194 17.0387 14.8752 19.3732C13.267 20.9924 11.3441 22.5628 11.5466 25.4064C11.6607 27.0148 12.5481 28.0727 13.6451 28.9537C14.5495 29.6799 15.5956 30.2912 16.6016 30.9144C18.9639 32.3789 21.0477 33.9838 21.6363 36.5009C22.1931 38.8806 21.4319 42.2986 17.574 47.529C17.0599 48.2255 16.0743 48.3761 15.3735 47.8652C14.6731 47.3543 14.5216 46.3737 15.0354 45.6772C18.047 41.5946 19.0047 39.0677 18.5702 37.2102C18.1675 35.4896 16.551 34.5725 14.9364 33.5713C11.8654 31.6677 8.69399 29.675 8.40612 25.627C8.12883 21.725 10.4291 19.3946 12.6353 17.1732C14.1317 15.667 15.6387 14.2499 14.8076 11.7035C14.0286 9.31748 11.7906 8.76596 9.48694 8.7855C5.36529 8.82076 0.85183 10.7537 0.652648 10.8398Z" fill="#BCFD04" stroke="black" stroke-width="0.7" stroke-miterlimit="2" stroke-linejoin="round"/>
<path fill-rule="evenodd" clip-rule="evenodd" d="M62.2513 22.4915C62.1054 22.7611 61.9438 23.0195 61.7964 23.2882C59.6705 27.1624 42.4489 57.7575 28.4833 58.24C23.3497 58.4173 26.3213 55.0124 32.623 45.6303C34.384 43.0085 35.7892 40.8632 36.8971 39.138C39.0281 35.8195 38.0029 31.5295 34.6993 29.3757C32.2633 27.7872 31.5833 24.536 33.1806 22.1136L41.4925 9.50577C43.0897 7.08331 46.359 6.40707 48.7949 7.99511L60.4958 15.6243C62.8016 17.1279 63.5341 20.1214 62.2513 22.4915Z" fill="#1BFDE4"/>
<path fill-rule="evenodd" clip-rule="evenodd" d="M62.5576 23.2054L62.5572 23.2061C62.1594 23.9455 53.1543 40.5788 42.7446 50.8216C38.0768 55.4148 33.1068 58.707 28.5054 58.8659C27.006 58.9178 26.0971 58.6247 25.6536 58.1341C25.2943 57.7362 25.1508 57.1907 25.2894 56.4634C25.4398 55.6771 25.9558 54.6052 26.7964 53.2261C27.9826 51.2807 29.8246 48.6701 32.0996 45.2828C33.8491 42.6782 35.2461 40.5458 36.3484 38.8297C38.2863 35.8128 37.3581 31.8577 34.3546 29.899C31.6278 28.1213 30.8666 24.482 32.6542 21.7702L40.9661 9.16243C42.7541 6.4507 46.4136 5.69368 49.1404 7.47183L60.8413 15.101C63.5598 16.8735 64.3248 20.4963 62.5576 23.2054ZM61.7966 23.2882C61.944 23.0195 62.1056 22.7612 62.2515 22.4916C63.5343 20.1214 62.8019 17.1279 60.496 15.6243L48.7951 7.99516C46.3592 6.40712 43.0899 7.08336 41.4927 9.50581L33.1808 22.1136C31.5836 24.5361 32.2636 27.7873 34.6995 29.3757C38.0032 31.5296 39.0283 35.8196 36.8973 39.138C35.7894 40.8632 34.3843 43.0085 32.6232 45.6303C26.3215 55.0125 23.3499 58.4173 28.4835 58.24C42.4492 57.7576 59.6708 27.1625 61.7966 23.2882Z" fill="black"/>
<path fill-rule="evenodd" clip-rule="evenodd" d="M36.2807 29.2472C35.8468 29.6492 35.1948 29.6987 34.6993 29.3757C32.2633 27.7872 31.5833 24.536 33.1806 22.1136L41.4925 9.50577C43.0897 7.08331 46.359 6.40707 48.7949 7.99511C49.6005 8.52043 49.9402 9.53479 49.5774 10.4255C46.8178 17.2003 42.4803 23.5024 36.2807 29.2472Z" fill="#FFFF33"/>
<path fill-rule="evenodd" clip-rule="evenodd" d="M35.1943 30.4468L34.3545 29.8991C31.6277 28.1213 30.8665 24.482 32.6541 21.7702L40.966 9.16243C42.754 6.4507 46.4136 5.69368 49.1404 7.47183L50.517 8.36935C50.7618 8.52902 50.8638 8.83521 50.7629 9.10871C47.9167 16.8265 43.1174 23.9605 35.9616 30.3882C35.7493 30.5791 35.4338 30.6031 35.1943 30.4468ZM34.6994 29.3757C35.1949 29.6988 35.847 29.6493 36.2809 29.2472C42.4804 23.5024 46.818 17.2004 49.5776 10.4255C49.9404 9.53484 49.6007 8.52048 48.7951 7.99516C46.3592 6.40712 43.0899 7.08336 41.4926 9.50581L33.1808 22.1136C31.5835 24.5361 32.2635 27.7873 34.6994 29.3757Z" fill="black"/>
<path fill-rule="evenodd" clip-rule="evenodd" d="M19.1244 44.7041C23.2898 47.42 24.4541 52.9877 21.7231 57.1301C18.9922 61.2725 13.3935 62.4307 9.22812 59.7149C5.06275 56.999 3.89844 51.4309 6.62939 47.2885C9.35997 43.1465 14.959 41.9883 19.1244 44.7041Z" fill="#1BFDE4"/>
<path fill-rule="evenodd" clip-rule="evenodd" d="M19.4695 44.1805C23.9254 47.0858 25.171 53.0423 22.2496 57.4736C19.3283 61.9049 13.3386 63.1439 8.8827 60.2387C4.42681 57.3331 3.1809 51.3769 6.10263 46.9456C9.02399 42.5143 15.0137 41.2753 19.4695 44.1805ZM19.1243 44.7042C14.9589 41.9884 9.35983 43.1466 6.62926 47.2886C3.8983 51.431 5.06261 56.9991 9.22799 59.715C13.3934 62.4308 18.992 61.2726 21.723 57.1302C24.4539 52.9879 23.2896 47.4201 19.1243 44.7042Z" fill="black"/>
</g>
</g>
<defs>
<clipPath id="clip0_1433_7949">
<rect x="0.015625" width="68" height="68" rx="8" fill="white"/>
</clipPath>
</defs>
</svg>
