<svg width="636" height="625" viewBox="0 0 636 625" fill="none" xmlns="http://www.w3.org/2000/svg">
<path fill-rule="evenodd" clip-rule="evenodd" d="M401.083 560.324C460.968 595.605 537.214 578.188 572.261 520.836C607.309 463.483 588.024 387.688 529.308 350.494L401.083 560.324Z" fill="#616DFF"/>
<path fill-rule="evenodd" clip-rule="evenodd" d="M536.715 145C498.808 155.027 475.55 192.52 484.653 229.33C493.756 266.139 531.81 288.469 570.021 279.67L536.715 145Z" fill="#1DFFE4"/>
<rect x="76" y="236.743" width="134.713" height="175.552" rx="8.94238" transform="rotate(-36.825 76 236.743)" fill="#FF3E3E"/>
<mask id="path-4-inside-1_1308_6929" fill="white">
<path fill-rule="evenodd" clip-rule="evenodd" d="M156.115 220.033L156.115 481.94H13.4509L13.4509 213.877H13.4537C13.7557 174.681 45.6235 143 84.8909 143C124.346 143 156.33 174.985 156.33 214.439C156.33 216.322 156.257 218.187 156.115 220.033Z"/>
</mask>
<path d="M156.115 220.033L154.257 219.889L154.252 219.961V220.033H156.115ZM156.115 481.94V483.802H157.978V481.94H156.115ZM13.4509 481.94H11.5879L11.5879 483.802H13.4509V481.94ZM13.4509 213.877L13.4509 212.014H11.5879V213.877H13.4509ZM13.4537 213.877L13.4537 215.74H15.3024L15.3166 213.892L13.4537 213.877ZM84.8909 143V144.863V143ZM154.252 220.033L154.252 481.94H157.978L157.978 220.033H154.252ZM156.115 480.077H13.4509V483.802H156.115V480.077ZM15.3139 481.94L15.3139 213.877H11.5879L11.5879 481.94H15.3139ZM13.4509 215.74H13.4537L13.4537 212.014H13.4509L13.4509 215.74ZM15.3166 213.892C15.6108 175.718 46.6476 144.863 84.8909 144.863V141.137C44.5994 141.137 11.9007 173.644 11.5907 213.863L15.3166 213.892ZM84.8909 144.863C123.317 144.863 154.467 176.013 154.467 214.439H158.193C158.193 173.956 125.375 141.137 84.8909 141.137V144.863ZM154.467 214.439C154.467 216.274 154.396 218.091 154.257 219.889L157.972 220.177C158.119 218.283 158.193 216.37 158.193 214.439H154.467Z" fill="white" mask="url(#path-4-inside-1_1308_6929)"/>
<mask id="mask0_1308_6929" style="mask-type:alpha" maskUnits="userSpaceOnUse" x="214" y="345" width="194" height="194">
<path fill-rule="evenodd" clip-rule="evenodd" d="M311 539C364.572 539 408 495.572 408 442C408 388.428 364.572 345 311 345C257.428 345 214 388.428 214 442C214 495.572 257.428 539 311 539ZM311 479.117C331.5 479.117 348.118 462.499 348.118 442C348.118 421.501 331.5 404.883 311 404.883C290.501 404.883 273.883 421.501 273.883 442C273.883 462.499 290.501 479.117 311 479.117Z" fill="#D9D9D9"/>
</mask>
<g mask="url(#mask0_1308_6929)">
<rect x="309.64" y="345" width="2.96939" height="194" fill="white"/>
<rect x="408" y="440.64" width="2.96939" height="194" transform="rotate(90 408 440.64)" fill="white"/>
<rect x="378.628" y="372.449" width="2.96939" height="194" transform="rotate(45 378.628 372.449)" fill="white"/>
<rect x="380.55" y="509.628" width="2.96939" height="194" transform="rotate(135 380.55 509.628)" fill="white"/>
<rect x="400.301" y="404.101" width="2.96939" height="194" transform="rotate(67.8071 400.301 404.101)" fill="white"/>
<rect x="348.898" y="531.301" width="2.96939" height="194" transform="rotate(157.807 348.898 531.301)" fill="white"/>
<rect x="400.943" y="478.347" width="2.96939" height="194" transform="rotate(112.807 400.943 478.347)" fill="white"/>
<rect x="274.654" y="531.943" width="2.96939" height="194" transform="rotate(-157.193 274.654 531.943)" fill="white"/>
</g>
<circle cx="378.5" cy="269.5" r="60.5" fill="#2CFF6D"/>
<rect width="50.0485" height="51.6576" rx="5.74169" transform="matrix(-0.972152 -0.234351 -0.234348 0.972153 488.685 335.604)" fill="#FFFF33"/>
<rect x="1.27596" y="-1.37387" width="43.3484" height="43.3484" transform="matrix(0.999318 -0.0369223 -0.0369223 -0.999318 263.649 221.967)" stroke="white" stroke-width="2.65164"/>
<path fill-rule="evenodd" clip-rule="evenodd" d="M403.226 125.388C395.266 131.246 385.297 133.69 375.512 132.184C365.728 130.677 356.928 125.344 351.051 117.356C345.173 109.368 342.698 99.3807 344.171 89.5907C345.643 79.8007 350.942 71.0101 358.902 65.1527L333.588 30.7508C321.428 39.6986 312.167 51.8414 306.71 65.6773C304.514 71.2444 302.934 77.0856 302.029 83.103C298.875 104.076 304.177 125.471 316.768 142.583C329.36 159.694 348.209 171.121 369.171 174.348C375.185 175.274 381.232 175.503 387.2 175.062C402.033 173.968 416.381 168.738 428.54 159.79L403.226 125.388Z" fill="#FF3185"/>
</svg>
