<svg width="69" height="68" viewBox="0 0 69 68" fill="none" xmlns="http://www.w3.org/2000/svg">
<g clip-path="url(#clip0_1433_7969)">
<path d="M67.9358 0.347412H0.311523V67.9717H67.9358V0.347412Z" fill="#BCFD04"/>
<mask id="mask0_1433_7969" style="mask-type:luminance" maskUnits="userSpaceOnUse" x="0" y="0" width="68" height="68">
<path d="M67.9358 0.347412H0.311523V67.9717H67.9358V0.347412Z" fill="white"/>
</mask>
<g mask="url(#mask0_1433_7969)">
<path d="M67.9352 15.8552H32.6958V60.3302H67.9352V15.8552Z" fill="#FFFF33"/>
<path fill-rule="evenodd" clip-rule="evenodd" d="M68.5614 15.8551V60.3302C68.5614 60.6762 68.2811 60.9564 67.9355 60.9564H32.6957C32.3501 60.9564 32.0698 60.6762 32.0698 60.3302V15.8551C32.0698 15.5095 32.3501 15.2292 32.6957 15.2292H67.9355C68.2811 15.2292 68.5614 15.5095 68.5614 15.8551ZM67.9355 15.8551H32.6957V60.3302H67.9355V15.8551Z" fill="black"/>
<path fill-rule="evenodd" clip-rule="evenodd" d="M52.342 37.5266C52.342 25.5578 42.6394 15.8552 30.6706 15.8552H30.6699C18.7011 15.8552 8.99854 25.5578 8.99854 37.5266V60.3302H52.342V37.5266Z" fill="#616DFE"/>
<path fill-rule="evenodd" clip-rule="evenodd" d="M52.9685 37.5265V60.3302C52.9685 60.6762 52.6879 60.9564 52.3423 60.9564H8.99883C8.65282 60.9564 8.37256 60.6762 8.37256 60.3302V37.5265C8.37256 25.2121 18.3554 15.2292 30.6702 15.2292H30.6709C42.9853 15.2292 52.9685 25.2121 52.9685 37.5265ZM52.3423 37.5265C52.3423 25.5577 42.6397 15.8551 30.6709 15.8551H30.6702C18.7014 15.8551 8.99883 25.5577 8.99883 37.5265V60.3302H52.3423V37.5265Z" fill="black"/>
<path fill-rule="evenodd" clip-rule="evenodd" d="M27.5325 5.51763C27.2372 5.00594 26.7506 4.63288 26.1803 4.47997C25.6097 4.32706 25.0018 4.40709 24.4905 4.70238C20.0682 7.25557 9.23858 13.5078 4.81632 16.061C4.30501 16.3563 3.93157 16.8428 3.77904 17.4135C3.62614 17.9838 3.70616 18.5917 4.00145 19.103C7.77076 25.6321 20.0258 46.8586 23.7955 53.3874C24.0908 53.8987 24.5769 54.2721 25.1476 54.425C25.7179 54.5779 26.3257 54.4979 26.8374 54.2026C31.2597 51.6494 42.089 45.3968 46.5112 42.8436C47.0229 42.5483 47.396 42.0618 47.5489 41.4915C47.7018 40.9208 47.6218 40.313 47.3265 39.8017C43.5572 33.2729 31.3018 12.0464 27.5325 5.51763Z" fill="white"/>
<path fill-rule="evenodd" clip-rule="evenodd" d="M28.0745 5.20441L47.8685 39.4888C48.2468 40.144 48.3494 40.9228 48.1536 41.6535C47.9579 42.3846 47.4796 43.0079 46.8244 43.3862L27.1503 54.7449C26.4951 55.1232 25.7162 55.2257 24.9855 55.03C24.2544 54.8339 23.6312 54.3556 23.2528 53.7004L3.45884 19.4164C3.08052 18.7612 2.97795 17.9824 3.17406 17.2513C3.3698 16.5206 3.84805 15.8973 4.50326 15.519L24.177 4.16036C24.8326 3.78204 25.6114 3.67948 26.3421 3.87521C27.0732 4.07095 27.6961 4.5492 28.0745 5.20441ZM27.5323 5.51773C27.237 5.00604 26.7505 4.63298 26.1802 4.48008C25.6096 4.32717 25.0017 4.40719 24.4904 4.70248L4.81621 16.0611C4.30489 16.3564 3.93145 16.8429 3.77892 17.4136C3.62602 17.9839 3.70604 18.5918 4.00133 19.1031L23.7953 53.3875C24.0906 53.8988 24.5768 54.2722 25.1475 54.4251C25.7178 54.578 26.3256 54.498 26.8373 54.2027L46.5111 42.8437C47.0228 42.5484 47.3959 42.0619 47.5488 41.4916C47.7017 40.9209 47.6216 40.3131 47.3263 39.8018L27.5323 5.51773Z" fill="black"/>
<path fill-rule="evenodd" clip-rule="evenodd" d="M3.29604 19.1348C3.02291 18.661 3.08002 18.0663 3.43842 17.6534C3.79721 17.2405 4.3784 17.1008 4.88521 17.3051L29.7281 27.3233C30.0005 27.4334 30.1598 27.7178 30.1113 28.0074L25.8273 53.6186C25.7379 54.1521 25.3235 54.5721 24.7916 54.6683C24.2592 54.7645 23.7238 54.5165 23.4533 54.0481L3.29604 19.1348ZM3.83854 18.8214L23.9958 53.7351C24.1341 53.9744 24.4076 54.1014 24.68 54.0522C24.952 54.003 25.1642 53.7881 25.2097 53.5153L29.4937 27.9041L4.65115 17.886C4.39193 17.7815 4.09476 17.8529 3.91142 18.064C3.72771 18.2752 3.6984 18.5795 3.83854 18.8214Z" fill="black"/>
<path fill-rule="evenodd" clip-rule="evenodd" d="M27.3796 5.25276C27.2395 5.00968 26.9603 4.88308 26.685 4.93718C26.4099 4.99165 26.1999 5.21481 26.1624 5.49282C25.3009 11.8818 22.5674 32.1582 22.5674 32.1582C22.5674 32.1582 40.9751 38.9684 46.7371 41.1C46.9959 41.1962 47.2875 41.1192 47.4655 40.9081C47.6436 40.6969 47.6703 40.3967 47.532 40.1578C43.978 34.0017 31.0249 11.5666 27.3796 5.25276Z" fill="#BCFD04"/>
<path fill-rule="evenodd" clip-rule="evenodd" d="M27.9215 4.93959L48.0739 39.8446C48.3441 40.3124 48.2918 40.8992 47.944 41.3121C47.5957 41.7246 47.0261 41.8749 46.5197 41.6878L22.35 32.746C22.075 32.6441 21.9075 32.3654 21.9465 32.075L25.5415 5.4092C25.6148 4.86596 26.0258 4.4294 26.5638 4.32308C27.1018 4.21714 27.6477 4.46472 27.9215 4.93959ZM27.3794 5.25292C27.2393 5.00985 26.9601 4.88324 26.6848 4.93734C26.4097 4.99181 26.1997 5.21497 26.1622 5.49298L22.5672 32.1584L46.7369 41.1002C46.9957 41.1964 47.2873 41.1194 47.4653 40.9082C47.6434 40.6971 47.6701 40.3969 47.5318 40.158L27.3794 5.25292Z" fill="black"/>
<path fill-rule="evenodd" clip-rule="evenodd" d="M28.8418 7.7854L26.0396 30.367L46.34 38.0927L28.8418 7.7854Z" fill="#1BFDE4"/>
<path fill-rule="evenodd" clip-rule="evenodd" d="M29.3836 7.47197L46.8818 37.7797C47.0144 38.0092 46.9881 38.297 46.8164 38.4987C46.6444 38.7005 46.3645 38.7723 46.1169 38.678L25.8164 30.9523C25.5471 30.8493 25.3825 30.5762 25.4178 30.2899L28.2201 7.70827C28.2532 7.44116 28.4534 7.22514 28.7172 7.17141C28.9809 7.11807 29.2491 7.23904 29.3836 7.47197ZM28.8415 7.78529L26.0392 30.3669L46.3397 38.0926L28.8415 7.78529Z" fill="black"/>
<path fill-rule="evenodd" clip-rule="evenodd" d="M67.9358 60.3303H6.07234C5.29879 60.3303 4.67139 60.9577 4.67139 61.7313C4.67139 63.9373 4.67139 67.9719 4.67139 67.9719H67.9358V60.3303Z" fill="#FD3E3E"/>
<path fill-rule="evenodd" clip-rule="evenodd" d="M68.5615 60.3301V67.9717C68.5615 68.3177 68.2812 68.598 67.9356 68.598H4.6712C4.32556 68.598 4.04492 68.3177 4.04492 67.9717V61.7311C4.04492 60.6115 4.95259 59.7039 6.07215 59.7039H67.9356C68.2812 59.7039 68.5615 59.9845 68.5615 60.3301ZM67.9356 60.3301H6.07215C5.2986 60.3301 4.6712 60.9575 4.6712 61.7311V67.9717H67.9356V60.3301Z" fill="black"/>
<path d="M67.9354 46.2624C72.4474 46.2624 76.1052 42.6047 76.1052 38.0926C76.1052 33.5806 72.4474 29.9229 67.9354 29.9229C63.4234 29.9229 59.7656 33.5806 59.7656 38.0926C59.7656 42.6047 63.4234 46.2624 67.9354 46.2624Z" fill="#BCFD04"/>
<path fill-rule="evenodd" clip-rule="evenodd" d="M67.9357 29.2971C72.79 29.2971 76.7314 33.2385 76.7314 38.0928C76.7314 42.9475 72.79 46.8885 67.9357 46.8885C63.081 46.8885 59.1396 42.9475 59.1396 38.0928C59.1396 33.2385 63.081 29.2971 67.9357 29.2971ZM67.9357 29.9234C63.4267 29.9234 59.7659 33.5841 59.7659 38.0928C59.7659 42.6018 63.4267 46.2626 67.9357 46.2626C72.4444 46.2626 76.1051 42.6018 76.1051 38.0928C76.1051 33.5841 72.4444 29.9234 67.9357 29.9234Z" fill="black"/>
</g>
</g>
<defs>
<clipPath id="clip0_1433_7969">
<rect x="0.015625" width="68" height="68" rx="8" fill="white"/>
</clipPath>
</defs>
</svg>
