<svg width="138" height="133" viewBox="0 0 138 133" fill="none" xmlns="http://www.w3.org/2000/svg">
<path d="M136 28.8502C136 32.1394 134.414 35.4522 131.172 38.6576C127.922 41.8702 123.117 44.8554 117.019 47.4051C104.831 52.5011 87.855 55.7003 69 55.7003C50.145 55.7003 33.169 52.5011 20.9811 47.4051C14.883 44.8554 10.0782 41.8702 6.8284 38.6576C3.58583 35.4522 2 32.1394 2 28.8502C2 25.561 3.58583 22.2481 6.8284 19.0427C10.0782 15.8301 14.883 12.845 20.9811 10.2952C33.169 5.19927 50.145 2 69 2C87.855 2 104.831 5.19927 117.019 10.2952C123.117 12.845 127.922 15.8301 131.172 19.0427C134.414 22.2481 136 25.561 136 28.8502Z" stroke="#6C77FF" stroke-width="4"/>
<path d="M136 65.7213C136 69.0105 134.414 72.3233 131.172 75.5287C127.922 78.7413 123.117 81.7265 117.019 84.2762C104.831 89.3722 87.855 92.5714 69 92.5714C50.145 92.5714 33.169 89.3722 20.9811 84.2762C14.883 81.7265 10.0782 78.7413 6.8284 75.5287C3.58583 72.3233 2 69.0105 2 65.7213C2 62.4321 3.58583 59.1192 6.8284 55.9138C10.0782 52.7012 14.883 49.7161 20.9811 47.1663C33.169 42.0704 50.145 38.8711 69 38.8711C87.855 38.8711 104.831 42.0704 117.019 47.1663C123.117 49.7161 127.922 52.7012 131.172 55.9138C134.414 59.1192 136 62.4321 136 65.7213Z" stroke="#6C77FF" stroke-width="4"/>
<path d="M136 104.035C136 107.324 134.414 110.637 131.172 113.842C127.922 117.055 123.117 120.04 117.019 122.59C104.831 127.686 87.855 130.885 69 130.885C50.145 130.885 33.169 127.686 20.9811 122.59C14.883 120.04 10.0782 117.055 6.8284 113.842C3.58583 110.637 2 107.324 2 104.035C2 100.746 3.58583 97.4328 6.8284 94.2274C10.0782 91.0148 14.883 88.0297 20.9811 85.4799C33.169 80.384 50.145 77.1847 69 77.1847C87.855 77.1847 104.831 80.384 117.019 85.4799C123.117 88.0297 127.922 91.0148 131.172 94.2274C134.414 97.4328 136 100.746 136 104.035Z" stroke="#6C77FF" stroke-width="4"/>
</svg>
