<svg width="360" height="370" viewBox="0 0 360 370" fill="none" xmlns="http://www.w3.org/2000/svg">
<rect x="266.376" y="275.718" width="28.7769" height="29.6682" rx="9.29032" transform="rotate(-44.9069 266.376 275.718)" fill="#616DFF"/>
<path fill-rule="evenodd" clip-rule="evenodd" d="M109.261 56.5886C113.192 62.5263 119.329 66.6545 126.32 68.065C133.311 69.4754 140.584 68.0526 146.539 64.1094C152.494 60.1663 156.644 54.0259 158.074 47.039C159.505 40.0522 158.1 32.7912 154.169 26.8534L179.817 9.87098C185.823 18.9415 189.076 29.4534 189.337 40.166C189.442 44.4763 189.063 48.8191 188.184 53.1136C185.118 68.0811 176.229 81.2354 163.472 89.6825C150.715 98.1296 135.134 101.178 120.157 98.1562C115.86 97.2893 111.714 95.9431 107.787 94.1635C98.0264 89.7408 89.619 82.6415 83.613 73.5709L109.261 56.5886Z" fill="#616DFF"/>
<ellipse cx="52.5" cy="242" rx="31.5" ry="31" fill="#FF3E3E"/>
<path fill-rule="evenodd" clip-rule="evenodd" d="M112.451 149.57C112.451 173.934 92.1598 193.733 66.9684 194.14V105C92.1598 105.407 112.451 125.206 112.451 149.57ZM66.9673 149.571C66.9673 173.935 46.6757 193.734 21.4839 194.141V105C46.6757 105.407 66.9673 125.206 66.9673 149.571Z" fill="#1DFFE4"/>
<path fill-rule="evenodd" clip-rule="evenodd" d="M251.933 250H252V360H123L123 250H123.338C123.641 214.748 152.312 186.265 187.636 186.265C222.959 186.265 251.63 214.748 251.933 250Z" fill="#616DFF"/>
<rect x="277.58" y="267.066" width="66.2644" height="68.3708" rx="8.41935" transform="rotate(7.92498 277.58 267.066)" stroke="white" stroke-width="1.74194"/>
<rect x="280.416" y="298.344" width="43.3585" height="44.7014" rx="9.29032" transform="rotate(-23.3305 280.416 298.344)" fill="#BCFF00"/>
<path fill-rule="evenodd" clip-rule="evenodd" d="M194.858 172.936L150.69 145.862L188.108 84.8184L232.456 112.002L232.455 112.003C249.209 122.369 254.444 144.34 244.138 161.153C233.832 177.967 211.878 183.272 195.038 173.046L195.038 173.046L194.957 172.997C194.941 172.987 194.924 172.976 194.908 172.966C194.891 172.956 194.875 172.946 194.858 172.936Z" fill="#FF3185"/>
<rect x="-0.432864" y="-1.15317" width="20.2297" height="20.2297" transform="matrix(0.413509 -0.9105 -0.9105 -0.413509 245.668 87.0745)" stroke="white" stroke-width="1.74194"/>
<rect x="-0.432864" y="-1.15317" width="31.472" height="31.4723" transform="matrix(0.413509 -0.9105 -0.9105 -0.413509 235.302 59.3924)" stroke="white" stroke-width="1.74194"/>
<rect x="-0.870968" y="0.870968" width="37.4672" height="37.4672" transform="matrix(-1 0 0 1 146.536 216.647)" stroke="white" stroke-width="1.74194"/>
<rect x="-0.870968" y="0.870968" width="43.8063" height="43.8063" transform="matrix(-1 0 0 1 109.151 254.406)" stroke="white" stroke-width="1.74194"/>
<rect x="-0.870968" y="0.870968" width="43.8063" height="43.8063" transform="matrix(-1 0 0 1 65.29 298.267)" stroke="white" stroke-width="1.74194"/>
<path fill-rule="evenodd" clip-rule="evenodd" d="M265.935 178.528C255.023 198.155 261.262 222.64 280.068 233.498C298.875 244.356 323.2 237.517 334.741 218.253L265.935 178.528Z" fill="#2CFF6D"/>
<mask id="path-15-inside-1_1433_7868" fill="white">
<path fill-rule="evenodd" clip-rule="evenodd" d="M343.561 69.5115V128.755L275.971 128.755L275.971 67.6332H275.972C276.07 49.0413 291.172 34 309.787 34C328.463 34 343.603 49.1398 343.603 67.8158C343.603 68.3844 343.589 68.9497 343.561 69.5115Z"/>
</mask>
<path d="M343.561 69.5115L341.821 69.4256L341.819 69.4685V69.5115H343.561ZM343.561 128.755V130.497H345.303V128.755H343.561ZM275.971 128.755H274.229L274.229 130.497H275.971L275.971 128.755ZM275.971 67.6332V65.8913H274.229L274.229 67.6332H275.971ZM275.972 67.6332V69.3751H277.705L277.714 67.6424L275.972 67.6332ZM309.787 34V35.7419V34ZM341.819 69.5115V128.755H345.303V69.5115H341.819ZM343.561 127.013L275.971 127.013L275.971 130.497L343.561 130.497V127.013ZM277.713 128.755L277.713 67.6332H274.229L274.229 128.755H277.713ZM275.971 69.3751H275.972V65.8913H275.971V69.3751ZM277.714 67.6424C277.807 50.0084 292.131 35.7419 309.787 35.7419V32.2581C290.213 32.2581 274.333 48.0741 274.23 67.624L277.714 67.6424ZM309.787 35.7419C327.501 35.7419 341.861 50.1019 341.861 67.8158H345.345C345.345 48.1778 329.425 32.2581 309.787 32.2581V35.7419ZM341.861 67.8158C341.861 68.3557 341.848 68.8924 341.821 69.4256L345.301 69.5974C345.33 69.0071 345.345 68.4131 345.345 67.8158H341.861Z" fill="white" mask="url(#path-15-inside-1_1433_7868)"/>
<circle cx="17.4194" cy="17.4194" r="17.4194" transform="matrix(-1 0 0 1 321.839 82)" fill="#1DFFE4"/>
<circle cx="24.9677" cy="24.9677" r="24.9677" transform="matrix(-1 0 0 1 71.4194 24.3872)" fill="#FFFF33"/>
<path d="M297.581 173.903C297.581 183.216 305.003 190.742 314.129 190.742C323.255 190.742 330.677 183.216 330.677 173.903C330.677 164.59 323.255 157.064 314.129 157.064C305.003 157.064 297.581 164.59 297.581 173.903Z" stroke="white" stroke-width="1.74194"/>
</svg>
