<svg width="1336" height="458" viewBox="0 0 1336 458" fill="none" xmlns="http://www.w3.org/2000/svg">
<rect x="1165.26" y="306.048" width="62.8671" height="64.8143" rx="16" transform="rotate(-44.9069 1165.26 306.048)" fill="#616DFF"/>
<path fill-rule="evenodd" clip-rule="evenodd" d="M173.031 141.06C181.621 154.032 195.026 163.05 210.299 166.132C225.572 169.213 241.461 166.104 254.471 157.49C267.481 148.876 276.546 135.461 279.671 120.197C282.797 104.934 279.728 89.071 271.139 76.0991L327.17 38.9988C340.291 58.8146 347.399 81.7793 347.969 105.182C348.199 114.599 347.37 124.086 345.449 133.468C338.752 166.167 319.333 194.904 291.463 213.358C263.593 231.812 229.554 238.471 196.836 231.87C187.449 229.976 178.391 227.035 169.811 223.147C148.488 213.485 130.121 197.976 117 178.16L173.031 141.06Z" fill="#616DFF"/>
<circle cx="475.978" cy="315.739" r="140.662" fill="#FF3E3E"/>
<path fill-rule="evenodd" clip-rule="evenodd" d="M108.393 350.613C108.393 408.677 60.0353 455.86 0 456.829V244.397C60.0353 245.366 108.393 292.549 108.393 350.613ZM216.785 350.613C216.785 408.676 168.429 455.859 108.394 456.829V244.397C168.429 245.367 216.785 292.55 216.785 350.613Z" fill="#1DFFE4"/>
<path fill-rule="evenodd" clip-rule="evenodd" d="M1076.83 251.099V454.604H795.882L795.882 251.141C795.882 251.127 795.882 251.113 795.882 251.099C795.882 251.085 795.882 251.071 795.882 251.057L795.882 250.499H795.884C796.207 173.194 858.974 110.626 936.355 110.626C1013.74 110.626 1076.5 173.194 1076.83 250.499H1076.83V251.099Z" fill="#616DFF"/>
<path d="M1149.5 214.5C1149.5 217.358 1148.11 220.218 1145.31 222.966C1142.51 225.719 1138.37 228.267 1133.14 230.439C1122.69 234.78 1108.14 237.5 1092 237.5C1075.86 237.5 1061.31 234.78 1050.86 230.439C1045.63 228.267 1041.49 225.719 1038.69 222.966C1035.89 220.218 1034.5 217.358 1034.5 214.5C1034.5 211.642 1035.89 208.782 1038.69 206.034C1041.49 203.281 1045.63 200.733 1050.86 198.561C1061.31 194.22 1075.86 191.5 1092 191.5C1108.14 191.5 1122.69 194.22 1133.14 198.561C1138.37 200.733 1142.51 203.281 1145.31 206.034C1148.11 208.782 1149.5 211.642 1149.5 214.5Z" stroke="white" stroke-width="3"/>
<path d="M1131.5 251.5C1131.5 259.061 1125.44 266.296 1114.75 271.73C1104.14 277.121 1089.38 280.5 1073 280.5C1056.62 280.5 1041.86 277.121 1031.25 271.73C1020.56 266.296 1014.5 259.061 1014.5 251.5C1014.5 243.939 1020.56 236.704 1031.25 231.27C1041.86 225.879 1056.62 222.5 1073 222.5C1089.38 222.5 1104.14 225.879 1114.75 231.27C1125.44 236.704 1131.5 243.939 1131.5 251.5Z" stroke="white" stroke-width="3"/>
<path d="M1165.5 295C1165.5 304.717 1158.54 313.813 1146.64 320.565C1134.78 327.292 1118.29 331.5 1100 331.5C1081.71 331.5 1065.22 327.292 1053.36 320.565C1041.46 313.813 1034.5 304.717 1034.5 295C1034.5 285.283 1041.46 276.187 1053.36 269.435C1065.22 262.708 1081.71 258.5 1100 258.5C1118.29 258.5 1134.78 262.708 1146.64 269.435C1158.54 276.187 1165.5 285.283 1165.5 295Z" stroke="white" stroke-width="3"/>
<rect x="1189.4" y="286.692" width="145.569" height="150.171" rx="14.5" transform="rotate(7.92498 1189.4 286.692)" stroke="white" stroke-width="3"/>
<rect x="1195.94" y="355.478" width="94.7225" height="97.6564" rx="16" transform="rotate(-23.3305 1195.94 355.478)" fill="#BCFF00"/>
<path fill-rule="evenodd" clip-rule="evenodd" d="M738.376 82.0589C774.977 104.705 786.414 152.704 763.899 189.435C741.384 226.166 693.422 237.756 656.633 215.416L656.632 215.417L559.748 156.03L641.492 22.6717L737.957 81.8012C738.002 81.8287 738.047 81.8562 738.092 81.8838C738.137 81.9113 738.182 81.9389 738.226 81.9666L738.376 82.0585L738.376 82.0589Z" fill="#FF3185"/>
<rect x="-2.05376" y="0.531096" width="45" height="45" transform="matrix(-0.861619 -0.507555 -0.507555 0.861619 568.585 59.3084)" stroke="white" stroke-width="3"/>
<rect x="-2.05376" y="0.531096" width="69.5605" height="69.561" transform="matrix(-0.861619 -0.507555 -0.507555 0.861619 506.052 75.4271)" stroke="white" stroke-width="3"/>
<rect x="-2" y="2" width="79.6633" height="79.6632" transform="matrix(-1 0 0 1 913.017 190.401)" stroke="white" stroke-width="4"/>
<rect x="-2" y="2" width="93.1893" height="93.1893" transform="matrix(-1 0 0 1 835.198 268.039)" stroke="white" stroke-width="4"/>
<rect x="-2" y="2" width="93.1893" height="93.1893" transform="matrix(-1 0 0 1 743.563 359.675)" stroke="white" stroke-width="4"/>
<path fill-rule="evenodd" clip-rule="evenodd" d="M1077.42 29.9982C1042.74 92.3777 1062.57 170.202 1122.34 204.713C1182.12 239.223 1259.43 217.486 1296.11 156.259L1077.42 29.9982Z" fill="#2CFF6D"/>
<mask id="path-18-inside-1_1308_7279" fill="white">
<path fill-rule="evenodd" clip-rule="evenodd" d="M404.188 322.151V456.779L250.597 456.779L250.597 317.885H250.598C250.821 275.637 285.139 241.457 327.44 241.457C369.879 241.457 404.283 275.861 404.283 318.3C404.283 319.592 404.251 320.876 404.188 322.151Z"/>
</mask>
<path d="M404.188 322.151L400.193 321.954L400.188 322.053V322.151H404.188ZM404.188 456.779V460.779H408.188V456.779H404.188ZM250.597 456.779H246.597L246.597 460.779H250.597L250.597 456.779ZM250.597 317.885V313.885H246.597L246.597 317.885H250.597ZM250.598 317.885V321.885H254.577L254.598 317.907L250.598 317.885ZM327.44 241.457V237.457V241.457ZM400.188 322.151V456.779H408.188V322.151H400.188ZM404.188 452.779L250.597 452.779L250.597 460.779L404.188 460.779V452.779ZM254.597 456.779L254.597 317.885H246.597L246.597 456.779H254.597ZM250.597 321.885H250.598V313.885H250.597V321.885ZM254.598 317.907C254.81 277.858 287.341 245.457 327.44 245.457V237.457C282.937 237.457 246.833 273.416 246.598 317.864L254.598 317.907ZM327.44 245.457C367.67 245.457 400.283 278.07 400.283 318.3H408.283C408.283 273.652 372.088 237.457 327.44 237.457V245.457ZM400.283 318.3C400.283 319.526 400.253 320.744 400.193 321.954L408.183 322.349C408.249 321.007 408.283 319.658 408.283 318.3H400.283Z" fill="white" mask="url(#path-18-inside-1_1308_7279)"/>
<circle cx="37.8887" cy="37.8887" r="37.8887" transform="matrix(-1 0 0 1 713.256 249.907)" fill="#1DFFE4"/>
<circle cx="54.5" cy="54.5" r="54.5" transform="matrix(-1 0 0 1 109 66)" fill="#FFFF33"/>
<circle cx="37.8887" cy="37.8887" r="36.3887" transform="matrix(-1 0 0 1 1250.78 15)" stroke="white" stroke-width="3"/>
</svg>
