<svg width="90" height="88" viewBox="0 0 90 88" fill="none" xmlns="http://www.w3.org/2000/svg">
<g clip-path="url(#clip0_1436_5819)">
<path d="M89.3619 0H0.389526V88H89.3619V0Z" fill="#FD3E3E"/>
<path fill-rule="evenodd" clip-rule="evenodd" d="M28.9076 69.3929C17.3116 69.3929 7.89679 60.081 7.89679 48.6117C7.89679 37.1429 17.3116 27.831 28.9076 27.831C28.9076 16.3617 38.3219 7.05029 49.9179 7.05029C61.514 7.05029 70.9283 16.3617 70.9283 27.831V69.3929H28.9076Z" fill="#1BFDE4"/>
<path fill-rule="evenodd" clip-rule="evenodd" d="M28.9076 70.2074C16.8568 70.2074 7.0733 60.5309 7.0733 48.6118C7.0733 36.961 16.4218 27.4526 28.0985 27.0307C28.5245 15.4822 38.138 6.23535 49.9179 6.23535C61.9683 6.23535 71.7523 15.9119 71.7523 27.831V69.393C71.7523 69.8427 71.383 70.2074 70.9283 70.2074H28.9076ZM28.9076 69.393H70.9283V27.831C70.9283 16.3617 61.514 7.05033 49.9179 7.05033C38.3219 7.05033 28.9076 16.3617 28.9076 27.831C17.3116 27.831 7.89679 37.1429 7.89679 48.6118C7.89679 60.0811 17.3116 69.393 28.9076 69.393Z" fill="black"/>
<path fill-rule="evenodd" clip-rule="evenodd" d="M70.4152 59.7017C67.8232 57.5697 62.2431 53.2674 60.4029 50.9384C58.9788 49.1363 59.8715 46.3022 62.3958 46.9735C64.7996 47.6125 69.4548 49.1999 69.4548 49.1999C69.4548 49.1999 68.4227 23.5982 72.1368 21.0599C75.8509 18.5221 81.7701 44.6889 82.7725 51.0591C83.5555 56.0346 77.6679 65.6676 70.4152 59.7017Z" fill="#FFFF33"/>
<path fill-rule="evenodd" clip-rule="evenodd" d="M69.8883 60.328C67.2626 58.1681 61.6183 53.7998 59.7539 51.44C58.6466 50.0388 58.6812 48.1532 59.5438 47.059C60.1646 46.2719 61.1972 45.8109 62.6094 46.1864C64.286 46.6322 67.0496 47.5357 68.5923 48.0495C68.4949 44.7182 68.3046 35.0544 69.1009 28.165C69.3589 25.9322 69.7242 23.9845 70.219 22.6122C70.6119 21.5224 71.1196 20.7651 71.6682 20.3897C72.3331 19.9355 73.0389 19.9487 73.77 20.4351C74.2519 20.7558 74.7679 21.344 75.2766 22.1702C78.7623 27.8335 82.776 45.783 83.5866 50.9335C83.9257 53.0885 83.1383 56.058 81.5338 58.4228C80.0529 60.6062 77.8904 62.2532 75.3749 62.395C73.6919 62.4898 71.8284 61.9237 69.8883 60.328ZM70.4152 59.7017C77.6679 65.6676 83.5554 56.0346 82.7725 51.0591C81.7701 44.6889 75.8509 18.5221 72.1368 21.0599C68.4227 23.5982 69.4548 49.1999 69.4548 49.1999C69.4548 49.1999 64.7996 47.6125 62.3958 46.9735C59.8715 46.3022 58.9788 49.1363 60.4029 50.9384C62.2431 53.2674 67.8232 57.5697 70.4152 59.7017Z" fill="black"/>
<path fill-rule="evenodd" clip-rule="evenodd" d="M61.2199 69.1471C59.0643 66.5834 54.7145 61.0643 52.3597 59.2442C50.5378 57.8357 47.6724 58.7186 48.351 61.2154C48.9971 63.5929 50.602 68.1972 50.602 68.1972C50.602 68.1972 24.7175 67.1764 22.1516 70.8499C19.5853 74.5234 46.0417 80.3779 52.4818 81.3694C57.5122 82.1442 67.2517 76.3206 61.2199 69.1471Z" fill="#FFFF33"/>
<path fill-rule="evenodd" clip-rule="evenodd" d="M61.8536 68.626C63.467 70.5449 64.0394 72.388 63.943 74.0526C63.7997 76.5406 62.1344 78.6795 59.9269 80.1442C57.536 81.7311 54.5337 82.5099 52.3549 82.1745C47.148 81.3728 28.9996 77.403 23.2737 73.9554C22.4384 73.4523 21.8442 72.9419 21.52 72.4652C21.0282 71.7421 21.0143 71.044 21.4735 70.3865C21.8531 69.8438 22.6188 69.3417 23.7211 68.953C25.1081 68.4637 27.0778 68.1024 29.3347 67.8472C36.3003 67.0601 46.0709 67.2478 49.439 67.3441C48.9195 65.8183 48.0061 63.0849 47.5553 61.4266C47.1757 60.0298 47.6418 59.0086 48.4376 58.3945C49.5438 57.5414 51.4503 57.5072 52.8669 58.6023C55.2529 60.4464 59.6699 66.029 61.8536 68.626ZM61.22 69.1471C59.0644 66.5834 54.7146 61.0643 52.3598 59.2442C50.5378 57.8357 47.6724 58.7186 48.3511 61.2154C48.9971 63.5929 50.6021 68.1972 50.6021 68.1972C50.6021 68.1972 24.7176 67.1764 22.1517 70.8499C19.5853 74.5234 46.0418 80.3779 52.4819 81.3693C57.5123 82.1442 67.2518 76.3206 61.22 69.1471Z" fill="black"/>
<path fill-rule="evenodd" clip-rule="evenodd" d="M34.3779 54.7508C28.3767 54.7508 23.5045 49.9318 23.5045 43.9962C23.5045 38.0606 28.3767 33.2416 34.3779 33.2416C34.3779 27.306 39.2502 22.4875 45.2513 22.4875C51.252 22.4875 56.1243 27.306 56.1243 33.2416V54.7508H34.3779Z" fill="#616DFE"/>
<path fill-rule="evenodd" clip-rule="evenodd" d="M34.3779 55.5658C27.922 55.5658 22.6805 50.3816 22.6805 43.9963C22.6805 37.8759 27.4959 32.8594 33.5806 32.4536C33.9909 26.4354 39.0633 21.6726 45.2514 21.6726C51.7068 21.6726 56.9483 26.8568 56.9483 33.2417V54.7508C56.9483 55.2006 56.5795 55.5658 56.1243 55.5658H34.3779ZM34.3779 54.7508H56.1243V33.2417C56.1243 27.3061 51.252 22.4876 45.2514 22.4876C39.2502 22.4876 34.3779 27.3061 34.3779 33.2417C28.3768 33.2417 23.5045 38.0606 23.5045 43.9963C23.5045 49.9319 28.3768 54.7508 34.3779 54.7508Z" fill="black"/>
<path fill-rule="evenodd" clip-rule="evenodd" d="M39.4127 46.9442C36.9793 46.9442 35.0037 44.9901 35.0037 42.5833C35.0037 40.1761 36.9793 38.222 39.4127 38.222C39.4127 35.8152 41.3889 33.8606 43.8223 33.8606C46.2562 33.8606 48.2319 35.8152 48.2319 38.222V46.9442H39.4127Z" fill="white"/>
<path fill-rule="evenodd" clip-rule="evenodd" d="M39.4127 47.759C36.5246 47.759 34.1797 45.4397 34.1797 42.5831C34.1797 39.9842 36.1203 37.8302 38.6451 37.4625C39.0168 34.9653 41.1947 33.0459 43.8223 33.0459C46.7105 33.0459 49.0554 35.3652 49.0554 38.2218V46.944C49.0554 47.3943 48.6866 47.759 48.2319 47.759H39.4127ZM39.4127 46.944H48.2319V38.2218C48.2319 35.815 46.2562 33.8604 43.8223 33.8604C41.3889 33.8604 39.4127 35.815 39.4127 38.2218C36.9794 38.2218 35.0037 40.1759 35.0037 42.5831C35.0037 44.9899 36.9794 46.944 39.4127 46.944Z" fill="black"/>
</g>
<defs>
<clipPath id="clip0_1436_5819">
<rect width="89.4667" height="88" rx="8" fill="white"/>
</clipPath>
</defs>
</svg>
