<svg width="90" height="88" viewBox="0 0 90 88" fill="none" xmlns="http://www.w3.org/2000/svg">
<g clip-path="url(#clip0_1436_5857)">
<path d="M81.1429 0H8.17053C3.75225 0 0.170532 3.58172 0.170532 8V80C0.170532 84.4183 3.75225 88 8.17053 88H81.1429C85.5612 88 89.1429 84.4183 89.1429 80V8C89.1429 3.58172 85.5612 0 81.1429 0Z" fill="#1BFDE4"/>
<path fill-rule="evenodd" clip-rule="evenodd" d="M38.881 40.0039C36.2869 38.8932 33.4991 38.2913 30.6733 38.2322L28.7594 43.6784C26.3591 43.8901 24.0354 44.6229 21.9549 45.8251L17.2068 42.4796C14.937 44.1463 13.0162 46.2328 11.5511 48.624L15.3636 52.9864C14.3483 55.1482 13.8283 57.5047 13.8402 59.8885L8.53693 62.2826C8.86118 65.06 9.72817 67.7488 11.0894 70.1992L16.8153 69.1148C18.2003 71.065 20.004 72.6891 22.0968 73.8702L21.5417 79.6103C24.1358 80.721 26.9236 81.3228 29.7494 81.382L31.6633 75.9353C34.0636 75.7241 36.3873 74.9912 38.4677 73.7891L43.2159 77.1345C45.4857 75.4679 47.4065 73.3813 48.8716 70.9902L45.0591 66.6278C46.0744 64.466 46.5944 62.109 46.5825 59.7257L51.8858 57.3316C51.5615 54.5537 50.6945 51.8653 49.3332 49.415L43.6074 50.4994C42.2224 48.5487 40.4187 46.9251 38.3259 45.7435L38.881 40.0039ZM31.6406 53.33C35.2548 54.1103 37.5488 57.646 36.76 61.2207C35.9711 64.7955 32.3964 67.0644 28.7821 66.2841C25.1678 65.5039 22.8738 61.9682 23.6627 58.3935C24.4516 54.8187 28.0263 52.5498 31.6406 53.33Z" fill="#FD3E3E"/>
<path fill-rule="evenodd" clip-rule="evenodd" d="M39.701 40.0816L39.1953 45.3059C41.0454 46.4274 42.6647 47.8848 43.9667 49.6017L49.178 48.6147C49.529 48.5482 49.8834 48.7129 50.0549 49.0224C51.4676 51.5656 52.3672 54.3557 52.7038 57.2377C52.7448 57.5887 52.5525 57.9261 52.2278 58.0727L47.4005 60.2517C47.3437 62.3974 46.8766 64.5129 46.0244 66.4865L49.4949 70.4573C49.7282 70.7242 49.7613 71.1099 49.5759 71.4121C48.056 73.8937 46.0625 76.0594 43.7072 77.7886C43.4205 77.9993 43.029 78.0033 42.7379 77.7979L38.4163 74.7531C36.5093 75.7769 34.4234 76.4349 32.2693 76.6916L30.5279 81.6494C30.4108 81.9833 30.0895 82.2043 29.7321 82.1965C26.7995 82.1353 23.9064 81.5105 21.2145 80.3577C20.8868 80.2174 20.6876 79.884 20.7217 79.5325L21.2273 74.3082C19.3772 73.1867 17.7579 71.7289 16.4559 70.0124L11.2446 70.9994C10.8937 71.0659 10.5393 70.9012 10.3678 70.5912C8.95508 68.0485 8.05547 65.2584 7.71886 62.3759C7.67783 62.0254 7.87011 61.6881 8.19486 61.5414L13.0221 59.3619C13.079 57.2167 13.5461 55.1013 14.3982 53.1276L10.9278 49.1569C10.6945 48.8894 10.6614 48.5037 10.8467 48.2016C12.3667 45.7205 14.3602 43.5547 16.7155 41.8255C17.0021 41.6148 17.3936 41.6109 17.6848 41.8157L22.0063 44.861C23.9133 43.8368 25.9992 43.1792 28.1533 42.9221L29.8947 37.9647C30.0119 37.6308 30.3332 37.4098 30.6905 37.4172C33.6232 37.4788 36.5163 38.1031 39.2082 39.2564C39.5359 39.3967 39.7351 39.7296 39.701 40.0816ZM38.8809 40.0039C36.2869 38.8931 33.4991 38.2913 30.6732 38.2321L28.7593 43.6784C26.3591 43.8901 24.0354 44.6229 21.9549 45.8251L17.2068 42.4796C14.937 44.1462 13.0162 46.2328 11.5511 48.624L15.3636 52.9863C14.3483 55.1482 13.8283 57.5046 13.8402 59.8885L8.53691 62.2825C8.86117 65.0599 9.72815 67.7488 11.0894 70.1991L16.8153 69.1148C18.2003 71.0649 20.004 72.689 22.0968 73.8702L21.5417 79.6102C24.1357 80.721 26.9235 81.3228 29.7494 81.382L31.6633 75.9353C34.0636 75.7241 36.3872 74.9912 38.4677 73.789L43.2159 77.1345C45.4857 75.4679 47.4065 73.3813 48.8716 70.9901L45.0591 66.6278C46.0744 64.4659 46.5943 62.109 46.5825 59.7257L51.8857 57.3316C51.5615 54.5537 50.6945 51.8653 49.3332 49.415L43.6073 50.4993C42.2223 48.5487 40.4187 46.9251 38.3259 45.7434L38.8809 40.0039ZM31.6406 53.33C35.2548 54.1103 37.5488 57.6459 36.7599 61.2207C35.9711 64.7954 32.3963 67.0644 28.7821 66.2841C25.1678 65.5038 22.8738 61.9682 23.6627 58.3934C24.4516 54.8187 28.0263 52.5497 31.6406 53.33ZM31.4651 54.1259C28.2947 53.442 25.1594 55.4317 24.4679 58.567C23.7759 61.7022 25.7877 64.8037 28.9576 65.4877C32.1279 66.1721 35.2632 64.1824 35.9547 61.0471C36.6467 57.9114 34.635 54.8104 31.4651 54.1259Z" fill="black"/>
<path d="M30.2116 69.917C35.857 69.917 40.4335 65.3905 40.4335 59.8068C40.4335 54.223 35.857 49.6965 30.2116 49.6965C24.5661 49.6965 19.9896 54.223 19.9896 59.8068C19.9896 65.3905 24.5661 69.917 30.2116 69.917Z" fill="white"/>
<path fill-rule="evenodd" clip-rule="evenodd" d="M30.2116 48.8821C36.3077 48.8821 41.257 53.7773 41.257 59.8068C41.257 65.8367 36.3077 70.732 30.2116 70.732C24.115 70.732 19.1656 65.8367 19.1656 59.8068C19.1656 53.7773 24.115 48.8821 30.2116 48.8821ZM30.2116 49.6971C24.5697 49.6971 19.9896 54.2271 19.9896 59.8068C19.9896 65.387 24.5697 69.917 30.2116 69.917C35.8529 69.917 40.433 65.387 40.433 59.8068C40.433 54.2271 35.8529 49.6971 30.2116 49.6971Z" fill="black"/>
<path d="M19.7425 28.7795C25.0032 28.7795 29.2679 24.5614 29.2679 19.3581C29.2679 14.1549 25.0032 9.93677 19.7425 9.93677C14.4817 9.93677 10.217 14.1549 10.217 19.3581C10.217 24.5614 14.4817 28.7795 19.7425 28.7795Z" fill="white"/>
<path fill-rule="evenodd" clip-rule="evenodd" d="M19.7425 9.12183C25.4545 9.12183 30.0914 13.7086 30.0914 19.3582C30.0914 25.0078 25.4545 29.5945 19.7425 29.5945C14.0304 29.5945 9.39301 25.0078 9.39301 19.3582C9.39301 13.7086 14.0304 9.12183 19.7425 9.12183ZM19.7425 9.9368C14.4852 9.9368 10.217 14.1584 10.217 19.3582C10.217 24.558 14.4852 28.7796 19.7425 28.7796C24.9997 28.7796 29.268 24.558 29.268 19.3582C29.268 14.1584 24.9997 9.9368 19.7425 9.9368Z" fill="black"/>
<path d="M69.571 78.0635C74.8318 78.0635 79.0965 73.8454 79.0965 68.6421C79.0965 63.4388 74.8318 59.2207 69.571 59.2207C64.3102 59.2207 60.0455 63.4388 60.0455 68.6421C60.0455 73.8454 64.3102 78.0635 69.571 78.0635Z" fill="white"/>
<path fill-rule="evenodd" clip-rule="evenodd" d="M69.571 58.4058C75.283 58.4058 79.92 62.9925 79.92 68.6421C79.92 74.2917 75.283 78.8785 69.571 78.8785C63.859 78.8785 59.2216 74.2917 59.2216 68.6421C59.2216 62.9925 63.859 58.4058 69.571 58.4058ZM69.571 59.2207C64.3137 59.2207 60.0455 63.4423 60.0455 68.6421C60.0455 73.8419 64.3137 78.0635 69.571 78.0635C74.8283 78.0635 79.0965 73.8419 79.0965 68.6421C79.0965 63.4423 74.8283 59.2207 69.571 59.2207Z" fill="black"/>
<path fill-rule="evenodd" clip-rule="evenodd" d="M68.3797 67.4638V64.1985H70.7622V67.4638H74.0631V69.8202H70.7622V73.0855H68.3797V69.8202H65.0784V67.4638H68.3797Z" fill="#1BFDE4"/>
<path fill-rule="evenodd" clip-rule="evenodd" d="M67.5558 66.6488V64.1985C67.5558 63.7487 67.9245 63.384 68.3797 63.384H70.7622C71.2175 63.384 71.5862 63.7487 71.5862 64.1985V66.6488H74.0631C74.5183 66.6488 74.8871 67.0135 74.8871 67.4638V69.8203C74.8871 70.2705 74.5183 70.6352 74.0631 70.6352H71.5862V73.0855C71.5862 73.5353 71.2175 73.9 70.7622 73.9H68.3797C67.9245 73.9 67.5558 73.5353 67.5558 73.0855V70.6352H65.0784C64.6236 70.6352 64.2549 70.2705 64.2549 69.8203V67.4638C64.2549 67.0135 64.6236 66.6488 65.0784 66.6488H67.5558ZM68.3797 67.4638H65.0784V69.8203H68.3797V73.0855H70.7622V69.8203H74.0631V67.4638H70.7622V64.1985H68.3797V67.4638Z" fill="black"/>
<path d="M27.2542 57.3716C28.1428 57.3716 28.8631 56.6592 28.8631 55.7803C28.8631 54.9014 28.1428 54.189 27.2542 54.189C26.3656 54.189 25.6453 54.9014 25.6453 55.7803C25.6453 56.6592 26.3656 57.3716 27.2542 57.3716Z" fill="black"/>
<path d="M36.192 57.3716C37.0806 57.3716 37.801 56.6592 37.801 55.7803C37.801 54.9014 37.0806 54.189 36.192 54.189C35.3035 54.189 34.5831 54.9014 34.5831 55.7803C34.5831 56.6592 35.3035 57.3716 36.192 57.3716Z" fill="black"/>
<path fill-rule="evenodd" clip-rule="evenodd" d="M29.7469 59.5144C29.7469 60.8168 30.259 61.8728 31.5758 61.8728C32.8931 61.8728 33.4052 60.8168 33.4052 59.5144H29.7469Z" fill="black"/>
<path fill-rule="evenodd" clip-rule="evenodd" d="M55.9058 6.61816C53.1072 7.00928 50.4113 7.93474 47.9695 9.34274L49.2107 14.9767C47.2745 16.3955 45.679 18.22 44.5381 20.3193L38.7223 19.9164C37.6655 22.5095 37.1282 25.281 37.1401 28.0765L42.6934 29.8306C42.9678 32.1983 43.7675 34.477 45.0354 36.5044L41.7746 41.2838C43.5164 43.4858 45.6745 45.3318 48.1287 46.7198L52.4409 42.8399C54.6513 43.7884 57.0467 44.243 59.4553 44.1707L62.0098 49.3534C64.809 48.9623 67.5044 48.0368 69.9467 46.6288L68.7055 40.9954C70.6416 39.5761 72.2372 37.7516 73.378 35.6523L79.1934 36.0551C80.2507 33.4626 80.788 30.6911 80.7761 27.8951L75.2227 26.1415C74.9479 23.7733 74.1481 21.4946 72.8808 19.4671L76.1411 14.6878C74.3992 12.4858 72.2417 10.6398 69.7875 9.25181L65.4753 13.1321C63.2644 12.1832 60.8695 11.7285 58.4603 11.8009L55.9058 6.61816ZM56.5672 21.1729C60.3688 19.8675 64.5268 21.8607 65.8465 25.6213C67.1658 29.3813 65.1506 33.4939 61.349 34.7992C57.5469 36.104 53.3889 34.1108 52.0697 30.3508C50.7499 26.5903 52.7651 22.4777 56.5672 21.1729Z" fill="#616DFE"/>
<path fill-rule="evenodd" clip-rule="evenodd" d="M56.6463 6.26129L58.9715 10.9786C61.1414 10.9805 63.2915 11.3883 65.3078 12.1808L69.2329 8.64902C69.4974 8.41142 69.8864 8.36938 70.1963 8.5444C72.7429 9.98467 74.9825 11.9006 76.7901 14.1857C77.0101 14.4639 77.0239 14.8506 76.8243 15.1434L73.856 19.494C74.9395 21.3533 75.6572 23.3988 75.9716 25.5225L81.0267 27.1188C81.3668 27.2263 81.5986 27.5382 81.6001 27.8917C81.6124 30.7928 81.0544 33.6694 79.9576 36.3602C79.8241 36.6878 79.4919 36.8931 79.1356 36.8682L73.8427 36.501C72.7562 38.3588 71.3238 39.9966 69.6219 41.3273L70.7514 46.4553C70.8275 46.8004 70.6698 47.1549 70.3614 47.3328C67.8272 48.7941 65.03 49.7543 62.125 50.1601C61.7716 50.2095 61.4261 50.0281 61.2694 49.7103L58.9443 44.993C56.7743 44.9911 54.6247 44.5833 52.6079 43.7908L48.6828 47.3226C48.4188 47.5602 48.0298 47.6022 47.7194 47.4272C45.1728 45.9869 42.9337 44.071 41.1256 41.7859C40.9056 41.5077 40.8918 41.121 41.092 40.8282L44.0597 36.4776C42.9762 34.6183 42.2585 32.5728 41.9441 30.4491L36.8895 28.8528C36.5489 28.7453 36.3176 28.4334 36.3161 28.0799C36.3038 25.1788 36.8613 22.3027 37.9586 19.6114C38.0921 19.2838 38.4238 19.0785 38.7802 19.1034L44.0735 19.4706C45.16 17.6128 46.5919 15.975 48.2943 14.6443L47.1643 9.51631C47.0882 9.17116 47.2459 8.81671 47.5543 8.63876C50.089 7.17747 52.8862 6.21729 55.7907 5.81151C56.1446 5.76213 56.4901 5.94351 56.6463 6.26129ZM55.9059 6.61818C53.1072 7.00929 50.4113 7.93476 47.9695 9.34276L49.2107 14.9767C47.2745 16.3955 45.679 18.22 44.5382 20.3193L38.7223 19.9164C37.6655 22.5095 37.1282 25.281 37.1401 28.0765L42.6935 29.8306C42.9678 32.1983 43.7676 34.477 45.0354 36.5044L41.7746 41.2838C43.5165 43.4858 45.6745 45.3318 48.1287 46.7198L52.4409 42.84C54.6513 43.7884 57.0467 44.2431 59.4554 44.1707L62.0099 49.3534C64.809 48.9623 67.5044 48.0368 69.9467 46.6288L68.7055 40.9954C70.6417 39.5761 72.2372 37.7516 73.3781 35.6523L79.1934 36.0552C80.2507 33.4626 80.788 30.6911 80.7761 27.8951L75.2227 26.1415C74.9479 23.7733 74.1482 21.4946 72.8808 19.4672L76.1411 14.6878C74.3993 12.4858 72.2417 10.6398 69.7875 9.25182L65.4753 13.1321C63.2644 12.1832 60.8695 11.7285 58.4604 11.8009L55.9059 6.61818ZM56.5672 21.1729C60.3688 19.8676 64.5268 21.8608 65.8465 25.6213C67.1658 29.3813 65.1506 33.4939 61.349 34.7992C57.5469 36.104 53.3889 34.1108 52.0697 30.3508C50.7499 26.5903 52.7651 22.4777 56.5672 21.1729ZM56.8371 21.9424C53.465 23.1001 51.6772 26.7482 52.8477 30.0834C54.0182 33.4191 57.7066 35.1869 61.0786 34.0292C64.4512 32.8715 66.2385 29.2239 65.068 25.8882C63.8976 22.553 60.2097 20.7847 56.8371 21.9424Z" fill="black"/>
<path d="M58.958 38.0962C64.6034 38.0962 69.18 33.5697 69.18 27.986C69.18 22.4022 64.6034 17.8757 58.958 17.8757C53.3126 17.8757 48.7361 22.4022 48.7361 27.986C48.7361 33.5697 53.3126 38.0962 58.958 38.0962Z" fill="white"/>
<path fill-rule="evenodd" clip-rule="evenodd" d="M58.958 17.0608C65.0541 17.0608 70.0035 21.956 70.0035 27.986C70.0035 34.0155 65.0541 38.9107 58.958 38.9107C52.8614 38.9107 47.9121 34.0155 47.9121 27.986C47.9121 21.956 52.8614 17.0608 58.958 17.0608ZM58.958 17.8758C53.3162 17.8758 48.7361 22.4058 48.7361 27.986C48.7361 33.5657 53.3162 38.0957 58.958 38.0957C64.5994 38.0957 69.1795 33.5657 69.1795 27.986C69.1795 22.4058 64.5994 17.8758 58.958 17.8758Z" fill="black"/>
<path d="M52.3212 29.5584C53.2098 29.5584 53.9301 28.8459 53.9301 27.9671C53.9301 27.0882 53.2098 26.3757 52.3212 26.3757C51.4326 26.3757 50.7123 27.0882 50.7123 27.9671C50.7123 28.8459 51.4326 29.5584 52.3212 29.5584Z" fill="black"/>
<path d="M61.2589 29.5584C62.1475 29.5584 62.8679 28.8459 62.8679 27.9671C62.8679 27.0882 62.1475 26.3757 61.2589 26.3757C60.3704 26.3757 59.65 27.0882 59.65 27.9671C59.65 28.8459 60.3704 29.5584 61.2589 29.5584Z" fill="black"/>
<path fill-rule="evenodd" clip-rule="evenodd" d="M54.814 31.7012C54.814 33.0036 55.3261 34.0596 56.6428 34.0596C57.9601 34.0596 58.4722 33.0036 58.4722 31.7012H54.814Z" fill="black"/>
<path fill-rule="evenodd" clip-rule="evenodd" d="M18.5512 18.1798V14.9146H20.9337V18.1798H24.2351V20.5363H20.9337V23.8016H18.5512V20.5363H15.2499V18.1798H18.5512Z" fill="#1BFDE4"/>
<path fill-rule="evenodd" clip-rule="evenodd" d="M17.7273 17.3649V14.9146C17.7273 14.4648 18.096 14.1001 18.5512 14.1001H20.9337C21.389 14.1001 21.7577 14.4648 21.7577 14.9146V17.3649H24.2351C24.6898 17.3649 25.0586 17.7296 25.0586 18.1799V20.5363C25.0586 20.9866 24.6898 21.3513 24.2351 21.3513H21.7577V23.8016C21.7577 24.2514 21.389 24.6161 20.9337 24.6161H18.5512C18.096 24.6161 17.7273 24.2514 17.7273 23.8016V21.3513H15.2499C14.7951 21.3513 14.4264 20.9866 14.4264 20.5363V18.1799C14.4264 17.7296 14.7951 17.3649 15.2499 17.3649H17.7273ZM18.5512 18.1799H15.2499V20.5363H18.5512V23.8016H20.9337V20.5363H24.2351V18.1799H20.9337V14.9146H18.5512V18.1799Z" fill="black"/>
</g>
<defs>
<clipPath id="clip0_1436_5857">
<rect width="89.4667" height="88" fill="white"/>
</clipPath>
</defs>
</svg>
