<svg width="400" height="300" viewBox="0 0 400 300" fill="none" xmlns="http://www.w3.org/2000/svg">
<rect width="400" height="300" fill="black"/>
<path fill-rule="evenodd" clip-rule="evenodd" d="M130.655 283.563C130.142 251.726 105.12 226.081 74.3276 226.081C43.5357 226.081 18.5138 251.726 18 283.563L130.655 283.563Z" fill="#616DFF"/>
<ellipse cx="13" cy="12.5" rx="13" ry="12.5" transform="matrix(-1 -8.74228e-08 -8.74228e-08 1 87 188)" fill="#FFFF33"/>
<rect width="23.3467" height="24.0973" rx="5.74169" transform="matrix(-1 -8.74228e-08 2.31745e-06 1 206 132.748)" fill="#2CFF6D"/>
<ellipse cx="57.5" cy="57.5" rx="57.5" ry="57.5" transform="matrix(-1 -8.74228e-08 -8.74228e-08 1 252 169.149)" fill="#FF3185"/>
<path fill-rule="evenodd" clip-rule="evenodd" d="M289.425 284L289.437 284L361.06 284C371.377 284 379.741 275.636 379.741 265.318C379.741 255.001 371.377 246.637 361.06 246.637L345.469 246.637L345.469 238.33C345.469 222.283 332.46 209.273 316.412 209.273L308.106 209.273L308.106 193.682C308.106 183.364 299.742 175 289.425 175C279.107 175 270.743 183.364 270.743 193.682L270.743 265.122C270.743 265.188 270.742 265.253 270.742 265.318C270.742 275.607 279.059 283.952 289.336 284L289.425 284Z" fill="#FF3E3E"/>
<path fill-rule="evenodd" clip-rule="evenodd" d="M119.692 70.7576C124.958 78.2176 127.034 87.4711 125.464 96.4825C123.894 105.494 118.807 113.525 111.321 118.809C103.835 124.093 94.564 126.197 85.5471 124.659C76.5302 123.12 68.5063 118.065 63.2405 110.605L30.9999 133.363C39.0439 144.758 50.0924 153.535 62.7741 158.828C67.8767 160.958 73.2438 162.524 78.786 163.469C98.1023 166.765 117.963 162.258 134 150.938C150.037 139.618 160.935 122.413 164.298 103.109C165.263 97.5701 165.585 91.9885 165.287 86.4673C164.546 72.7453 159.977 59.3958 151.933 48L119.692 70.7576Z" fill="#1DFFE4"/>
<path d="M282 131.761C267.221 131.761 255.239 119.779 255.239 105C255.239 90.2206 267.221 78.2395 282 78.2395C296.779 78.2395 308.76 90.2206 308.76 105C308.76 119.779 296.779 131.761 282 131.761Z" stroke="white" stroke-width="3"/>
<path d="M282 160.5C251.348 160.5 226.5 135.652 226.5 105C226.5 74.3482 251.348 49.5 282 49.5C312.652 49.5 337.5 74.3482 337.5 105C337.5 135.652 312.652 160.5 282 160.5Z" stroke="white" stroke-width="3"/>
</svg>
