<svg width="400" height="300" viewBox="0 0 400 300" fill="none" xmlns="http://www.w3.org/2000/svg">
<rect width="400" height="300" fill="black"/>
<path fill-rule="evenodd" clip-rule="evenodd" d="M236.905 131.337C229.812 139.126 219.904 143.769 209.361 144.243C198.818 144.718 188.503 140.985 180.687 133.867C172.87 126.749 168.192 116.828 167.681 106.286C167.17 95.7449 170.868 85.4467 177.961 77.6573L144.297 47C133.461 58.899 126.324 73.5308 123.517 89.1356C122.388 95.4144 121.96 101.851 122.274 108.33C123.369 130.912 133.391 152.165 150.136 167.415C166.881 182.664 188.976 190.66 211.562 189.643C218.042 189.351 224.41 188.325 230.556 186.615C245.831 182.364 259.733 173.893 270.569 161.994L236.905 131.337Z" fill="#616DFF"/>
<rect width="98.6017" height="101.772" rx="5.74169" transform="matrix(-0.986715 -0.162463 -0.162461 0.986715 382.826 183.611)" fill="#FF3E3E"/>
<circle cx="37.4111" cy="37.4111" r="37.4111" transform="matrix(-1 0 0 1 253.822 208.592)" fill="#1DFFE4"/>
<path fill-rule="evenodd" clip-rule="evenodd" d="M20.0002 209.592C20.6583 250.326 52.6726 283.137 92.069 283.137C131.465 283.137 163.48 250.326 164.138 209.592L20.0002 209.592Z" fill="#FF3185"/>
<path fill-rule="evenodd" clip-rule="evenodd" d="M62.3279 151C58.572 169.809 70.0341 188.097 88.1624 192.022C106.291 195.948 124.291 184.04 128.653 165.362L62.3279 151Z" fill="#FFFF33"/>
<rect x="-1.5" y="-1.5" width="52.5605" height="52.561" transform="matrix(1.19249e-08 -1 -1 -1.19249e-08 360.001 147)" stroke="white" stroke-width="3"/>
<rect x="-1.5" y="-1.5" width="52.5605" height="52.561" transform="matrix(1.19249e-08 -1 -1 -1.19249e-08 306.561 93.5605)" stroke="white" stroke-width="3"/>
</svg>
