<svg width="400" height="300" viewBox="0 0 400 300" fill="none" xmlns="http://www.w3.org/2000/svg">
<g clip-path="url(#clip0_1323_5632)">
<rect width="400" height="300" fill="black"/>
<path fill-rule="evenodd" clip-rule="evenodd" d="M291.159 282.854C312.258 237.804 294.706 184.652 251.477 163.547C208.248 142.443 155.542 161.296 133 205.641L291.159 282.854Z" fill="#616DFF"/>
<rect width="47" height="48.511" rx="5.74169" transform="matrix(-1 -8.74228e-08 2.31745e-06 1 163 234)" fill="#2CFF6D"/>
<rect width="50.6741" height="82.2997" rx="5.74169" transform="matrix(-0.568956 -0.822368 -0.822367 0.568958 105.022 235.973)" fill="#FF3185"/>
<circle cx="21.5" cy="21.5" r="21.5" transform="matrix(-1 0 0 1 288 107.941)" fill="#1DFFE4"/>
<path fill-rule="evenodd" clip-rule="evenodd" d="M425.044 190.388C418.619 198.475 409.233 203.67 398.952 204.829C388.67 205.989 378.335 203.018 370.22 196.57C362.105 190.123 356.875 180.727 355.679 170.45C354.484 160.172 357.423 149.855 363.848 141.768L328.897 114C319.082 126.354 313.066 141.137 311.349 156.586C310.659 162.802 310.665 169.126 311.399 175.443C313.959 197.46 325.164 217.588 342.549 231.4C359.933 245.212 382.073 251.576 404.099 249.092C410.418 248.38 416.58 246.955 422.479 244.877C437.14 239.713 450.18 230.51 459.994 218.156L425.044 190.388Z" fill="#FF3E3E"/>
<path d="M163.929 152.505L87.5929 181.264C85.9714 181.875 84.3931 180.275 85.026 178.662L131.114 61.1881C131.746 59.575 130.168 57.9751 128.547 58.586L52.21 87.3448C50.5885 87.9557 50.4581 90.1992 51.9981 90.9938L164.141 148.857C165.681 149.651 165.551 151.895 163.929 152.505Z" stroke="white" stroke-width="3"/>
</g>
<defs>
<clipPath id="clip0_1323_5632">
<rect width="400" height="300" fill="white"/>
</clipPath>
</defs>
</svg>
