<svg width="88" height="88" viewBox="0 0 88 88" fill="none" xmlns="http://www.w3.org/2000/svg">
<g clip-path="url(#clip0_1436_5798)">
<path d="M88 0H0V88H88V0Z" fill="#616DFE"/>
<path fill-rule="evenodd" clip-rule="evenodd" d="M32.6539 59.7077C32.6539 59.7077 13.8385 42.3746 12.7825 41.2199C9.4884 37.6192 7.4776 32.8252 7.4776 27.5647C7.4776 16.3931 16.5475 7.32324 27.7191 7.32324C38.8912 7.32324 47.961 16.3931 47.961 27.5647C47.961 37.4598 40.8457 45.7059 31.4571 47.4615L32.6539 59.7077Z" fill="#1BFDE4"/>
<path fill-rule="evenodd" clip-rule="evenodd" d="M32.1019 60.3071C32.1019 60.3071 13.2401 42.9276 12.1812 41.7699C8.75455 38.024 6.6626 33.0369 6.6626 27.5647C6.6626 15.9434 16.0977 6.5083 27.719 6.5083C39.3409 6.5083 48.776 15.9434 48.776 27.5647C48.776 37.5992 41.7414 46.0037 32.3395 48.1118L33.465 59.6285C33.4977 59.9649 33.3198 60.2866 33.0171 60.4371C32.7145 60.5877 32.3508 60.5359 32.1019 60.3071ZM32.6539 59.7077L31.4571 47.4615C40.8457 45.7059 47.961 37.4599 47.961 27.5647C47.961 16.3931 38.8911 7.32328 27.719 7.32328C16.5474 7.32328 7.47758 16.3931 7.47758 27.5647C7.47758 32.8252 9.48838 37.6192 12.7825 41.2199C13.8385 42.3747 32.6539 59.7077 32.6539 59.7077Z" fill="black"/>
<path d="M31.306 32.8191C32.2349 32.8191 32.9878 32.0662 32.9878 31.1373C32.9878 30.2085 32.2349 29.4556 31.306 29.4556C30.3772 29.4556 29.6243 30.2085 29.6243 31.1373C29.6243 32.0662 30.3772 32.8191 31.306 32.8191Z" fill="black"/>
<path d="M40.6472 32.8191C41.576 32.8191 42.329 32.0662 42.329 31.1373C42.329 30.2085 41.576 29.4556 40.6472 29.4556C39.7184 29.4556 38.9655 30.2085 38.9655 31.1373C38.9655 32.0662 39.7184 32.8191 40.6472 32.8191Z" fill="black"/>
<path fill-rule="evenodd" clip-rule="evenodd" d="M33.9109 35.0828C33.9109 36.4595 34.4467 37.5751 35.8229 37.5751C37.1992 37.5751 37.7345 36.4595 37.7345 35.0828H33.9109Z" fill="black"/>
<path fill-rule="evenodd" clip-rule="evenodd" d="M55.3462 28.2925C55.3462 28.2925 74.2588 45.7106 75.3471 46.9231C78.5645 50.5071 80.5225 55.2444 80.5225 60.4355C80.5225 71.6071 71.4526 80.6769 60.281 80.6769C49.1089 80.6769 40.0391 71.6071 40.0391 60.4355C40.0391 50.5403 47.1543 42.2943 56.543 40.5387L55.3462 28.2925Z" fill="#BCFD04"/>
<path fill-rule="evenodd" clip-rule="evenodd" d="M55.8982 27.6932C55.8982 27.6932 74.8622 45.1627 75.9534 46.3785C79.3003 50.1073 81.3375 55.0353 81.3375 60.4356C81.3375 72.0569 71.9024 81.492 60.2811 81.492C48.6592 81.492 39.2241 72.0569 39.2241 60.4356C39.2241 50.4011 46.2587 41.9966 55.6606 39.8885L54.5351 28.3718C54.5024 28.0359 54.6803 27.7137 54.983 27.5632C55.2851 27.4126 55.6493 27.4644 55.8982 27.6932ZM55.3462 28.2926L56.543 40.5388C47.1544 42.2944 40.0391 50.5404 40.0391 60.4356C40.0391 71.6072 49.109 80.677 60.2811 80.677C71.4527 80.677 80.5225 71.6072 80.5225 60.4356C80.5225 55.2445 78.5645 50.5072 75.3471 46.9232C74.2589 45.7107 55.3462 28.2926 55.3462 28.2926Z" fill="black"/>
<path d="M48.0255 53.0926C48.9543 53.0926 49.7073 52.3396 49.7073 51.4108C49.7073 50.482 48.9543 49.729 48.0255 49.729C47.0967 49.729 46.3438 50.482 46.3438 51.4108C46.3438 52.3396 47.0967 53.0926 48.0255 53.0926Z" fill="black"/>
<path d="M57.3662 53.0926C58.295 53.0926 59.048 52.3396 59.048 51.4108C59.048 50.482 58.295 49.729 57.3662 49.729C56.4374 49.729 55.6844 50.482 55.6844 51.4108C55.6844 52.3396 56.4374 53.0926 57.3662 53.0926Z" fill="black"/>
<path fill-rule="evenodd" clip-rule="evenodd" d="M50.6304 55.356C50.6304 56.7327 51.1662 57.8483 52.5424 57.8483C53.9186 57.8483 54.454 56.7327 54.454 55.356H50.6304Z" fill="black"/>
<path fill-rule="evenodd" clip-rule="evenodd" d="M15.5629 51.6396C14.3392 50.4159 12.6799 49.729 10.9497 49.729C9.21952 49.729 7.56023 50.4159 6.33654 51.6396L6.33605 51.6401C5.11236 52.8638 4.42548 54.523 4.42548 56.2532C4.42548 57.9834 5.11236 59.6427 6.33605 60.8664C11.8634 66.3938 21.0697 75.5995 26.5971 81.1274C27.8208 82.3506 29.4801 83.038 31.2102 83.038C32.9404 83.038 34.5997 82.3506 35.8229 81.1274L35.8239 81.1264C37.0471 79.9032 37.7345 78.2439 37.7345 76.5138C37.7345 74.7836 37.0471 73.1243 35.8239 71.9006C30.2965 66.3732 21.0902 57.167 15.5629 51.6396Z" fill="#2BFD6D"/>
<path fill-rule="evenodd" clip-rule="evenodd" d="M16.1387 51.063L36.3998 71.3245C37.776 72.7007 38.5494 74.5673 38.5494 76.5136C38.5494 78.4598 37.776 80.3264 36.3998 81.7026L36.3993 81.7031C35.0231 83.0793 33.1565 83.8527 31.2102 83.8527C29.2639 83.8527 27.3974 83.0793 26.0211 81.7031L5.75963 61.4421C4.38341 60.0659 3.61047 58.1993 3.61047 56.253C3.61047 54.3068 4.38341 52.4402 5.75963 51.0639L5.76061 51.063C7.13683 49.6867 9.00341 48.9138 10.9497 48.9138C12.8959 48.9138 14.7625 49.6867 16.1387 51.063ZM15.5628 51.6394C14.3391 50.4157 12.6799 49.7288 10.9497 49.7288C9.2195 49.7288 7.56021 50.4157 6.33652 51.6394L6.33603 51.6399C5.11234 52.8635 4.42545 54.5228 4.42545 56.253C4.42545 57.9832 5.11234 59.6425 6.33603 60.8662L26.5971 81.1272C27.8207 82.3504 29.48 83.0378 31.2102 83.0378C32.9404 83.0378 34.5997 82.3504 35.8229 81.1272L35.8239 81.1262C37.0471 79.903 37.7344 78.2437 37.7344 76.5136C37.7344 74.7834 37.0471 73.1241 35.8239 71.9004L15.5628 51.6394Z" fill="black"/>
<path fill-rule="evenodd" clip-rule="evenodd" d="M26.3843 62.4611C25.1611 61.2379 23.5018 60.5505 21.7717 60.5505C20.041 60.5505 18.3817 61.2379 17.1585 62.4611L17.1575 62.4621C15.9343 63.6853 15.2469 65.3446 15.2469 67.0753C15.2469 68.8054 15.9343 70.4647 17.1575 71.6879C20.0337 74.5641 23.7209 78.2513 26.597 81.1274C27.8207 82.3506 29.48 83.038 31.2101 83.038C32.9403 83.038 34.5996 82.3506 35.8228 81.1274L35.8238 81.1264C37.047 79.9032 37.7344 78.2439 37.7344 76.5137C37.7344 74.7836 37.047 73.1243 35.8238 71.9006C32.9477 69.0244 29.2605 65.3373 26.3843 62.4611Z" fill="white"/>
<path fill-rule="evenodd" clip-rule="evenodd" d="M26.9608 61.8852L36.3997 71.3247C37.776 72.7009 38.5494 74.5675 38.5494 76.5138C38.5494 78.46 37.776 80.3266 36.3997 81.7028L36.3993 81.7033C35.023 83.0796 33.1565 83.853 31.2102 83.853C29.2639 83.853 27.3973 83.0796 26.0211 81.7033L16.5817 72.2644C15.2054 70.8881 14.432 69.0216 14.432 67.0753C14.432 65.1285 15.2054 63.262 16.5817 61.8857L16.5821 61.8852C17.9584 60.509 19.8249 59.7356 21.7717 59.7356C23.718 59.7356 25.5845 60.509 26.9608 61.8852ZM26.3844 62.4612C25.1612 61.238 23.5019 60.5506 21.7717 60.5506C20.041 60.5506 18.3817 61.238 17.1585 62.4612L17.1576 62.4621C15.9344 63.6853 15.247 65.3446 15.247 67.0753C15.247 68.8055 15.9344 70.4648 17.1576 71.688L26.597 81.1274C27.8207 82.3506 29.48 83.038 31.2102 83.038C32.9404 83.038 34.5997 82.3506 35.8229 81.1274L35.8238 81.1264C37.047 79.9032 37.7344 78.244 37.7344 76.5138C37.7344 74.7836 37.047 73.1243 35.8238 71.9006L26.3844 62.4612Z" fill="black"/>
<path fill-rule="evenodd" clip-rule="evenodd" d="M61.0256 6.1762C59.8024 4.953 58.1431 4.26562 56.4129 4.26562C54.6827 4.26562 53.0229 4.953 51.7997 6.1762L51.7988 6.17718C50.5756 7.40038 49.8882 9.06016 49.8882 10.7903C49.8882 12.5205 50.5756 14.1798 51.7988 15.403C57.3266 20.9309 66.5324 30.1366 72.0603 35.664C73.2835 36.8877 74.9428 37.5751 76.6729 37.5751C78.4031 37.5751 80.0624 36.8877 81.2861 35.664L81.2866 35.6635C82.5103 34.4398 83.1977 32.7806 83.1977 31.0504C83.1977 29.3202 82.5103 27.6609 81.2866 26.4377C75.7592 20.9098 66.5534 11.7041 61.0256 6.1762Z" fill="#FFFF33"/>
<path fill-rule="evenodd" clip-rule="evenodd" d="M61.602 5.60033L81.863 25.8614C83.2392 27.2376 84.0122 29.1042 84.0122 31.0504C84.0122 32.9967 83.2392 34.8633 81.863 36.2395L81.862 36.2405C80.4858 37.6167 78.6192 38.3896 76.673 38.3896C74.7267 38.3896 72.8601 37.6167 71.4839 36.2405L51.2229 15.9794C49.8467 14.6032 49.0732 12.7366 49.0732 10.7904C49.0732 8.84362 49.8467 6.97704 51.2229 5.60082L51.2234 5.60033C52.6001 4.22411 54.4667 3.45068 56.4129 3.45068C58.3592 3.45068 60.2258 4.22411 61.602 5.60033ZM61.0256 6.17624C59.8024 4.95304 58.1431 4.26566 56.4129 4.26566C54.6828 4.26566 53.023 4.95304 51.7998 6.17624L51.7988 6.17722C50.5756 7.40042 49.8882 9.06019 49.8882 10.7904C49.8882 12.5205 50.5756 14.1798 51.7988 15.403L72.0603 35.6641C73.2835 36.8877 74.9428 37.5751 76.673 37.5751C78.4032 37.5751 80.0624 36.8877 81.2861 35.6641L81.2866 35.6636C82.5103 34.4399 83.1977 32.7806 83.1977 31.0504C83.1977 29.3202 82.5103 27.661 81.2866 26.4378L61.0256 6.17624Z" fill="black"/>
<path fill-rule="evenodd" clip-rule="evenodd" d="M61.0256 6.17632C58.478 3.62872 54.3473 3.62872 51.7997 6.17632L51.7988 6.1773C49.2512 8.7249 49.2512 12.8555 51.7988 15.4031C54.8617 18.466 58.8671 22.4715 61.93 25.5344C64.4776 28.082 68.6082 28.082 71.1558 25.5344L71.1568 25.5334C73.7044 22.9858 73.7044 18.8552 71.1568 16.3076C68.0939 13.2447 64.0884 9.23921 61.0256 6.17632Z" fill="white"/>
<path fill-rule="evenodd" clip-rule="evenodd" d="M61.602 5.60033L71.7328 15.7311C74.5986 18.5969 74.5986 23.2433 71.7328 26.1097L71.7323 26.1102C68.8664 28.9761 64.2195 28.9761 61.3536 26.1102L51.2229 15.9794C48.357 13.1136 48.357 8.46668 51.2229 5.60082L51.2234 5.60033C54.0897 2.73446 58.7361 2.73446 61.602 5.60033ZM61.0256 6.17624C58.478 3.62864 54.3474 3.62864 51.7998 6.17624L51.7988 6.17722C49.2512 8.72482 49.2512 12.8554 51.7988 15.403L61.93 25.5343C64.4776 28.0819 68.6083 28.0819 71.1559 25.5343L71.1568 25.5333C73.7044 22.9857 73.7044 18.8551 71.1568 16.3075L61.0256 6.17624Z" fill="black"/>
</g>
<defs>
<clipPath id="clip0_1436_5798">
<rect width="88" height="88" rx="8" fill="white"/>
</clipPath>
</defs>
</svg>
